<!DOCTYPE svg PUBLIC "-//W3C//DTD SVG 20010904//EN" "http://www.w3.org/TR/2001/REC-SVG-20010904/DTD/svg10.dtd">
<svg version="1.0" xmlns="http://www.w3.org/2000/svg" width="250px" height="250px" viewBox="0 0 5000 5000" preserveAspectRatio="xMidYMid meet">
<g id="layer101" fill="#1a319b" stroke="none">
<path d="M0 2500 l0 -2500 2500 0 2500 0 0 2500 0 2500 -2500 0 -2500 0 0 -2500z"/>
</g>
<g id="layer102" fill="#5766b1" stroke="none">
<path d="M0 2500 l0 -2500 2500 0 2500 0 0 2500 0 2500 -2500 0 -2500 0 0 -2500z m1956 2304 c19 -15 34 -30 34 -35 0 -5 -38 -9 -84 -9 -104 0 -116 -10 -86 -69 12 -22 50 -63 84 -91 99 -80 168 -184 182 -271 5 -31 17 -53 41 -75 32 -30 43 -54 24 -54 -13 0 -61 48 -61 61 0 24 -316 365 -392 423 -37 27 -53 56 -23 39 35 -20 307 -288 332 -329 25 -38 53 -58 53 -36 0 29 -72 121 -146 188 -95 86 -144 146 -144 176 0 29 59 96 89 101 54 8 63 6 97 -19z m-613 -67 c-40 -42 -94 -116 -128 -173 -32 -54 -70 -119 -84 -144 -15 -25 -44 -79 -65 -120 -95 -183 -177 -266 -298 -301 -48 -13 -39 6 10 24 26 9 71 38 100 65 63 59 68 90 20 130 -104 88 -117 104 -138 168 -19 57 -20 70 -10 115 7 28 23 63 37 79 38 46 137 65 177 35 11 -8 31 -15 44 -15 14 0 51 -18 82 -40 44 -29 61 -36 68 -27 6 7 37 53 70 102 58 88 91 124 142 158 49 32 42 16 -27 -56z m1837 -22 c154 -102 278 -220 350 -334 25 -39 81 -124 126 -188 65 -96 272 -473 259 -473 -9 0 -83 112 -129 195 -74 135 -322 516 -386 593 -31 37 -74 80 -95 95 -82 59 -208 137 -221 137 -8 0 -14 4 -14 9 0 5 -6 8 -12 8 -7 -1 -35 3 -61 7 -41 7 -59 5 -118 -19 -66 -26 -70 -29 -115 -101 -26 -42 -58 -103 -71 -137 -13 -34 -28 -69 -33 -77 -6 -8 -24 -42 -41 -74 -61 -117 -159 -262 -188 -279 -38 -22 -63 -22 -31 0 31 21 54 48 77 90 l17 32 -81 79 c-106 104 -154 177 -161 242 -6 69 5 80 87 80 64 0 218 -35 288 -65 l33 -15 36 73 c20 39 45 84 55 98 17 24 17 28 3 33 -9 3 -154 6 -322 6 -169 0 -313 4 -320 9 -28 17 15 29 133 35 341 18 467 22 535 15 53 -4 84 -3 110 7 19 8 62 12 95 11 58 -3 67 -7 195 -92z m-1565 53 c19 -13 35 -26 35 -31 0 -4 -18 5 -40 19 -38 25 -47 34 -35 34 3 0 21 -10 40 -22z m1414 -78 c36 -10 81 -46 81 -64 0 -12 -34 -48 -94 -99 l-39 -33 27 -66 c14 -37 26 -70 26 -74 0 -4 -16 -31 -35 -60 -56 -85 -101 -84 -179 3 -42 46 -46 55 -42 90 16 124 98 267 171 299 37 16 42 16 84 4z m-1474 -54 c65 -36 219 -174 275 -246 19 -24 48 -67 63 -94 15 -28 36 -60 46 -71 10 -11 42 -55 70 -98 78 -116 180 -212 275 -258 49 -24 94 -39 117 -39 90 0 236 151 294 304 16 42 33 76 38 76 10 0 0 -51 -18 -95 -12 -30 -11 -31 99 -146 61 -64 127 -142 146 -175 31 -52 35 -66 35 -130 0 -67 -2 -75 -40 -129 -22 -32 -62 -76 -90 -97 -27 -22 -61 -49 -75 -61 -109 -93 -270 -188 -452 -267 l-111 -49 2 -64 c2 -59 0 -68 -28 -99 -44 -50 -115 -85 -214 -104 l-88 -17 24 -21 c41 -36 401 -409 435 -451 53 -65 37 -14 -19 61 -58 78 -103 163 -114 213 -9 41 9 77 47 97 25 13 32 13 61 -2 17 -9 74 -59 125 -111 52 -52 95 -93 97 -91 1 2 12 21 23 43 23 45 116 141 177 182 22 14 60 44 84 65 70 61 163 102 230 102 102 -1 225 -25 371 -75 30 -10 55 -17 56 -16 2 1 -7 36 -18 76 -17 61 -18 81 -9 111 6 21 11 65 11 100 0 56 15 140 42 230 29 95 117 185 226 231 54 22 55 22 69 3 14 -19 13 -29 -3 -68 -6 -16 -4 -18 14 -14 28 8 29 -15 2 -49 -24 -31 -27 -98 -5 -150 8 -19 15 -51 15 -70 0 -18 7 -50 15 -69 13 -33 13 -35 -3 -32 -11 2 -22 22 -32 56 -15 53 -26 64 -36 37 -4 -8 -13 -15 -21 -15 -16 0 -12 22 13 74 17 36 17 36 0 36 -8 0 -29 -12 -46 -27 -25 -21 -34 -23 -40 -13 -13 21 8 52 30 45 32 -10 60 43 60 115 0 67 -15 74 -26 12 -8 -44 -31 -85 -45 -77 -5 4 -3 15 6 28 16 23 20 57 7 57 -5 0 -20 -13 -35 -28 -27 -29 -35 -52 -17 -52 15 0 12 -26 -6 -41 -13 -10 -17 -10 -24 1 -5 8 -11 12 -13 10 -15 -16 -56 -112 -62 -143 -6 -32 -5 -36 9 -31 25 10 19 -19 -9 -44 -16 -14 -25 -32 -25 -51 0 -16 -3 -44 -6 -62 l-7 -34 26 23 c17 16 27 20 32 12 5 -8 10 -9 18 -1 20 20 37 12 37 -19 0 -27 8 -35 33 -31 12 2 8 -37 -5 -41 -6 -2 -22 7 -35 20 -22 22 -25 23 -48 8 -13 -9 -31 -13 -39 -10 -19 7 -19 3 -7 -28 5 -13 12 -36 16 -52 6 -27 7 -27 20 -10 10 15 16 16 26 7 9 -9 6 -14 -10 -25 -33 -20 -27 -41 9 -33 35 8 38 -3 13 -41 -23 -35 -5 -46 70 -41 42 2 57 0 57 -10 0 -9 -15 -13 -45 -13 -73 0 -50 -36 32 -51 54 -10 144 -51 191 -87 18 -14 35 -22 38 -20 8 8 -16 98 -39 143 -10 22 -30 52 -44 67 -14 14 -23 32 -21 39 9 26 129 -180 142 -242 5 -21 13 -28 43 -33 220 -36 454 67 584 256 22 32 44 68 49 80 8 19 9 16 4 -12 -12 -63 -45 -112 -144 -210 l-99 -98 41 -18 c59 -26 87 -75 93 -160 5 -68 5 -69 -10 -36 -9 18 -36 45 -62 62 -44 28 -53 30 -145 30 -101 0 -117 -7 -74 -35 17 -11 35 -14 60 -10 45 9 132 -19 164 -53 13 -13 21 -26 19 -28 -2 -2 -23 2 -46 11 -23 8 -65 17 -93 21 -50 7 -51 7 -45 -17 4 -13 7 -34 7 -47 0 -14 8 -26 23 -32 18 -7 15 -9 -21 -9 -26 -1 -49 5 -58 14 -8 8 -33 19 -54 25 -24 6 -40 17 -40 25 0 19 3 19 50 -5 74 -37 89 -23 39 35 -42 47 -69 60 -170 81 -77 15 -89 21 -149 72 -76 64 -126 89 -213 104 -76 13 -120 38 -154 89 -14 22 -31 39 -37 39 -6 0 -45 16 -86 36 -187 90 -337 129 -426 113 -118 -22 -321 -174 -442 -331 -12 -14 -2 -29 75 -115 49 -54 105 -118 125 -143 20 -25 49 -59 65 -76 16 -17 39 -44 51 -59 28 -36 38 -26 24 22 -8 25 -36 62 -82 107 -95 94 -135 157 -131 208 2 24 50 78 69 78 9 0 40 -24 70 -53 l53 -52 20 28 c27 35 61 35 89 0 42 -55 195 -276 195 -282 0 -17 79 -114 83 -103 2 8 -17 41 -43 74 -26 33 -53 79 -61 101 -13 38 -13 43 4 67 29 38 50 36 94 -7 34 -32 202 -236 259 -315 10 -13 20 -20 23 -17 4 4 -13 30 -36 59 -58 70 -97 139 -98 171 0 28 34 79 53 79 7 0 51 -41 99 -91 l86 -91 25 17 c33 21 50 12 111 -56 l46 -51 26 31 c28 34 51 38 92 17 42 -22 117 -107 147 -166 27 -54 129 -183 153 -194 25 -11 11 23 -34 80 -83 105 -95 165 -43 208 17 14 36 26 43 26 21 0 98 -63 144 -119 l44 -52 33 21 c52 32 87 27 129 -20 57 -63 67 -98 64 -224 -2 -90 -6 -111 -18 -114 -9 -1 -79 68 -174 173 -87 96 -163 175 -167 175 -16 0 -9 -15 36 -75 25 -33 55 -79 67 -102 18 -35 20 -44 9 -57 -8 -9 -28 -16 -46 -16 -24 0 -34 -6 -43 -25 -16 -34 -37 -31 -73 7 -19 22 -29 43 -29 65 0 19 -9 43 -23 59 l-23 27 -43 -31 c-41 -30 -44 -31 -69 -15 -45 28 -92 75 -138 139 -41 58 -130 141 -139 132 -4 -4 31 -57 93 -139 36 -47 40 -91 10 -97 -33 -6 -121 95 -172 198 -26 52 -52 100 -58 107 -18 22 -28 14 -16 -12 6 -14 14 -25 18 -25 4 0 13 -17 20 -39 15 -46 1 -81 -32 -81 -11 0 -31 -11 -44 -25 -13 -14 -30 -25 -38 -25 -21 0 -66 81 -66 119 0 25 -11 44 -50 84 l-49 52 5 -36 c8 -47 -16 -73 -57 -64 -26 6 -29 4 -29 -20 0 -29 -24 -43 -49 -28 -32 20 -63 77 -57 105 3 15 1 30 -5 33 -5 4 -43 57 -84 119 -41 61 -84 121 -96 131 -28 25 -20 10 39 -73 41 -60 43 -66 31 -89 -21 -39 -54 -50 -89 -29 l-29 17 -6 -28 c-4 -15 -8 -37 -10 -47 -2 -11 12 -48 31 -84 40 -77 42 -94 11 -119 -23 -18 -57 -77 -57 -97 1 -6 17 -29 36 -51 20 -22 69 -82 110 -132 41 -51 78 -93 83 -93 4 0 18 11 30 24 35 37 83 56 140 56 55 0 68 -13 24 -25 -102 -29 -145 -49 -166 -76 -28 -38 -39 -37 -66 11 -47 84 -271 318 -409 428 -23 18 -42 37 -42 42 0 16 49 -8 83 -40 18 -16 36 -30 40 -30 4 0 29 -20 56 -45 l48 -45 12 40 c12 39 11 43 -26 94 -43 62 -121 151 -243 281 -47 49 -118 126 -158 170 -40 45 -72 73 -72 64 0 -9 7 -22 15 -29 8 -6 37 -55 66 -108 28 -54 81 -145 116 -204 38 -63 63 -114 59 -123 -15 -41 -10 -46 -598 560 -53 55 -99 97 -103 94 -6 -6 98 -152 132 -186 10 -10 49 -54 87 -98 38 -44 115 -129 171 -190 109 -119 215 -244 215 -256 0 -23 -35 -39 -84 -39 -62 0 -304 58 -393 95 -71 28 -73 29 -73 15 0 -19 256 -180 532 -335 165 -92 352 -219 423 -286 71 -67 46 -62 415 -79 154 -6 262 -7 290 -1 25 5 54 9 65 9 11 0 25 1 30 2 22 5 45 -1 45 -10 0 -5 -18 -10 -39 -10 -22 0 -41 -5 -43 -11 -2 -6 -19 -11 -38 -12 -19 -1 -38 -6 -42 -12 -9 -12 -181 -10 -368 4 -74 6 -148 11 -163 11 -15 0 -43 7 -61 15 -17 8 -43 17 -56 20 -14 3 -33 14 -43 26 -10 12 -47 41 -82 64 -64 42 -64 42 -82 23 -26 -29 -111 -71 -157 -77 l-40 -6 -1 -50 c-2 -67 13 -101 79 -181 48 -58 68 -96 101 -192 3 -7 21 -12 44 -12 70 0 81 -58 28 -136 -19 -27 -37 -64 -40 -82 -14 -71 -98 -141 -169 -142 -18 0 -31 -8 -39 -22 -37 -72 -180 -177 -275 -202 -48 -13 -88 -15 -183 -9 -67 3 -124 10 -127 15 -3 4 -15 9 -27 9 -17 1 -15 3 8 9 17 4 84 5 150 2 87 -3 138 0 184 12 85 20 96 31 76 79 -24 59 -20 122 13 163 l27 34 88 0 c73 0 96 4 135 24 64 33 96 64 127 127 26 51 27 53 9 67 -23 17 -102 10 -177 -17 -63 -22 -87 -17 -56 10 20 17 106 49 134 49 23 0 34 22 23 49 -5 14 -11 34 -14 45 -4 19 -41 73 -84 119 -14 15 -25 33 -26 40 -1 24 -16 83 -29 112 -7 17 -16 47 -20 67 -7 47 -63 103 -109 112 -71 13 -262 -44 -363 -109 -37 -24 -69 -42 -71 -40 -17 16 99 116 167 144 17 8 31 17 31 21 0 11 -127 130 -139 130 -6 0 -11 6 -11 13 0 16 64 87 78 87 6 0 -4 -14 -21 -32 l-32 -31 65 -59 c102 -94 96 -91 188 -77 108 16 158 3 211 -57 29 -33 46 -44 68 -44 39 0 138 60 138 84 0 13 -47 46 -165 116 -213 127 -317 191 -338 210 -24 21 -80 60 -86 60 -9 0 -112 73 -138 98 -16 14 -28 24 -29 21 0 -2 -4 -42 -9 -89 -4 -47 -13 -114 -20 -150 -11 -58 -10 -76 9 -165 12 -54 21 -115 21 -135 0 -58 -27 -133 -72 -201 -36 -54 -43 -72 -46 -126 -4 -53 -7 -63 -21 -61 -12 2 -17 16 -19 51 -3 41 -6 48 -20 42 -9 -4 -29 -12 -44 -17 -39 -14 -40 -68 -3 -88 14 -7 25 -18 25 -23 0 -19 -36 -36 -75 -35 -39 1 -39 1 -8 7 l33 6 -20 30 c-11 17 -20 42 -20 57 0 70 -63 20 -91 -73 -16 -51 -16 -52 7 -72 29 -25 30 -37 6 -37 -13 0 -22 -12 -30 -39 -18 -58 -16 -74 8 -66 26 8 50 -11 50 -40 0 -12 9 -32 20 -45 18 -21 19 -25 5 -40 -28 -31 -19 -42 30 -34 36 5 46 3 51 -10 4 -10 -1 -25 -11 -36 -10 -11 -16 -21 -14 -23 2 -1 17 -9 34 -17 33 -17 46 -50 21 -50 -30 0 -16 -17 23 -28 21 -7 44 -19 51 -27 10 -12 6 -16 -22 -23 l-33 -9 40 -12 c42 -14 65 -35 65 -60 0 -13 -2 -13 -12 1 -10 12 -39 18 -108 22 -97 7 -217 28 -265 46 -19 7 -25 15 -21 28 8 24 -19 96 -37 100 -17 4 -27 -26 -27 -85 0 -36 -3 -43 -19 -43 -27 0 -77 61 -85 105 -6 31 -3 41 15 61 l22 23 -29 12 c-16 6 -56 15 -89 19 -96 14 -272 48 -334 66 -83 24 -117 40 -175 84 -29 22 -58 40 -65 40 -24 0 -204 157 -251 218 -43 59 -127 230 -235 481 -40 93 -38 102 21 121 32 11 39 9 75 -16 22 -15 56 -45 76 -68 96 -108 201 -192 319 -255 195 -105 315 -182 459 -295 113 -90 174 -152 236 -243 49 -72 79 -92 79 -53 0 11 30 70 66 130 54 90 64 113 54 125 -14 17 -5 85 17 129 17 33 12 39 -39 56 -21 6 -38 16 -38 21 0 12 0 12 50 -6 100 -35 217 -9 281 64 68 77 86 188 61 361 -10 64 -8 91 9 190 11 63 25 131 30 150 6 19 11 50 12 69 2 38 9 33 -213 121 -58 23 -120 49 -138 57 -19 9 -37 12 -42 7 -16 -17 -110 -319 -125 -399 -7 -44 -18 -131 -23 -193 -10 -111 -21 -147 -42 -126 -13 13 6 392 25 479 8 38 15 77 15 85 0 8 -29 35 -65 59 -91 62 -97 71 -47 71 31 0 51 -8 87 -35 l46 -36 10 30 c6 16 19 47 30 67 10 21 16 41 11 45 -4 3 -50 25 -102 48 -96 42 -352 165 -380 182 -8 5 -43 22 -78 38 -34 16 -115 61 -180 99 -144 86 -182 105 -182 94 0 -19 201 -220 236 -237 30 -14 51 -16 120 -10 52 4 84 3 84 -3 0 -18 -25 -30 -77 -37 -60 -8 -69 -25 -25 -52 15 -9 48 -39 74 -66 59 -63 91 -152 107 -297 30 -270 73 -422 158 -563 48 -81 73 -108 163 -175 41 -30 77 -57 79 -59 2 -2 2 -6 -1 -9 -17 -16 -138 76 -258 196 -93 93 -164 255 -191 437 -21 142 -28 210 -29 283 -1 107 -20 143 -113 213 -84 63 -248 233 -305 316 -46 68 -149 172 -225 230 -32 24 -56 46 -53 49 3 3 28 -7 55 -21 27 -15 53 -27 59 -27 5 0 -4 35 -21 78 -25 64 -31 96 -35 184 -4 96 -2 110 17 141 34 56 104 113 191 157 86 43 136 55 264 65 44 3 83 8 87 10 4 3 68 5 143 6 l136 1 -6 52 c-7 59 6 94 50 135 14 14 26 28 26 33 0 5 -28 47 -62 93 -77 102 -172 238 -199 284 l-20 33 -52 -54 c-29 -30 -43 -43 -31 -29 50 61 89 130 150 261 112 245 189 370 261 425 60 45 98 46 178 1z m532 14 c17 -10 37 -29 44 -41 10 -20 9 -21 -7 -14 -69 28 -75 29 -92 18 -12 -7 -17 -23 -16 -48 2 -42 -9 -30 -21 23 -6 27 -3 38 16 58 27 29 35 29 76 4z m1133 -80 c43 -23 200 -215 303 -370 104 -157 287 -500 287 -537 0 -26 -14 -7 -68 97 -164 314 -367 619 -521 783 -35 37 -36 46 -1 27z m-450 -279 c0 -5 -7 -14 -15 -21 -16 -14 -18 -10 -9 14 6 17 24 22 24 7z m-2257 -333 c55 -46 103 -76 149 -94 37 -14 68 -30 68 -35 0 -11 3 -12 -60 7 -81 24 -153 75 -272 192 -122 119 -145 157 -37 61 38 -35 107 -94 152 -131z m2948 120 c19 -24 36 -45 39 -48 13 -11 70 -88 70 -94 0 -3 20 -35 45 -72 25 -36 45 -69 45 -75 0 -22 -19 -5 -44 40 -23 44 -150 227 -165 241 -21 19 -42 50 -33 50 6 0 25 -19 43 -42z m-2938 20 c32 -16 98 -71 93 -76 -5 -4 -126 76 -126 83 0 8 10 6 33 -7z m3353 -73 c90 -144 110 -198 29 -77 -25 37 -57 82 -70 101 -14 19 -25 38 -25 43 0 23 26 -3 66 -67z m389 -427 c67 -14 193 -80 244 -127 45 -42 47 -48 27 -76 -14 -19 -15 -19 -35 -1 -12 11 -47 30 -78 43 -126 54 -199 82 -210 83 -15 0 -53 -62 -53 -89 0 -30 14 -26 54 15 22 23 37 31 41 24 11 -18 -28 -64 -64 -75 -26 -7 -31 -14 -27 -30 3 -11 6 -37 6 -57 0 -35 2 -38 30 -38 34 0 39 -14 10 -30 -40 -21 -15 -95 78 -229 44 -63 35 -67 -18 -7 -88 102 -132 203 -145 339 l-7 67 -44 0 c-31 0 -44 4 -44 14 0 22 26 37 53 31 19 -5 28 -2 36 13 25 47 0 95 -27 54 -21 -31 -44 -29 -36 3 6 23 4 25 -30 25 -20 0 -36 4 -36 8 0 13 32 39 60 51 28 12 137 6 215 -11z m-245 -102 c0 -14 -36 -46 -52 -46 -14 0 -9 23 9 42 19 22 43 24 43 4z m624 -154 c45 -89 77 -195 83 -274 5 -66 4 -78 -9 -78 -11 0 -17 16 -22 60 -7 62 -44 180 -67 218 -19 31 -34 27 -59 -12 -27 -45 -163 -172 -191 -179 -13 -4 2 16 43 56 80 78 110 117 139 187 39 95 45 96 83 22z m-344 14 c0 -24 -23 -41 -41 -30 -10 6 -12 38 -2 47 3 4 15 7 25 7 12 0 18 -7 18 -24z m-273 -2 c1 -5 -2 -16 -7 -24 -12 -20 -35 2 -26 25 6 17 27 16 33 -1z m70 -54 c-1 -22 -4 -40 -7 -40 -3 1 -13 12 -23 26 -22 29 -16 54 12 54 16 0 19 -7 18 -40z m-199 -22 c-4 -30 -48 -39 -48 -10 0 10 3 22 7 25 3 4 15 7 25 7 14 0 19 -6 16 -22z m-217 -88 c22 -23 39 -50 39 -63 -1 -31 -69 -104 -81 -86 -5 9 -2 22 7 34 26 36 26 45 3 64 -22 18 -26 18 -41 4 -17 -15 -18 -14 -18 12 0 24 33 75 48 75 2 0 22 -18 43 -40z m202 -14 c6 -16 -2 -28 -14 -20 -12 7 -11 34 0 34 5 0 11 -6 14 -14z m77 -27 c-10 -17 -30 -27 -30 -13 0 15 22 44 31 39 5 -4 5 -13 -1 -26z m-200 -69 c0 -11 -4 -20 -10 -20 -5 0 -10 9 -10 20 0 11 5 20 10 20 6 0 10 -9 10 -20z m-144 -32 c4 -6 -5 -22 -22 -36 -26 -22 -29 -23 -32 -8 -4 17 24 56 39 56 4 0 11 -5 15 -12z m84 -43 c0 -8 -7 -15 -15 -15 -8 0 -15 7 -15 15 0 8 7 15 15 15 8 0 15 -7 15 -15z m273 -111 c30 -35 36 -54 11 -33 -20 16 -74 95 -73 106 0 4 8 -3 17 -17 9 -13 29 -39 45 -56z m467 -7 c0 -9 -56 19 -65 33 -4 6 10 2 29 -7 20 -10 36 -21 36 -26z m264 1 c-4 -13 -7 -32 -7 -43 1 -15 0 -16 -3 -3 -3 10 -18 18 -37 21 l-32 3 32 13 c17 7 34 19 37 28 10 25 19 7 10 -19z m-525 -201 c24 -21 41 -40 39 -42 -2 -2 -31 21 -63 51 -33 31 -51 49 -39 42 12 -7 40 -30 63 -51z m241 -127 c8 -5 12 -12 8 -15 -9 -9 -59 6 -52 16 7 12 25 11 44 -1z m-1261 -45 c41 -14 118 -37 170 -50 136 -35 237 -75 306 -122 33 -22 80 -51 104 -63 24 -12 61 -34 82 -49 21 -16 70 -38 109 -51 39 -12 73 -27 76 -31 3 -5 17 -9 30 -9 16 0 24 -5 21 -12 -6 -18 -74 -13 -140 11 -30 10 -106 52 -168 93 -63 41 -141 86 -174 99 -33 13 -62 27 -63 32 -2 4 -8 5 -13 1 -5 -3 -9 -1 -9 4 0 5 -6 9 -12 9 -7 0 -64 17 -127 37 -63 20 -120 36 -128 36 -7 0 -13 5 -13 11 0 5 -4 8 -8 5 -4 -2 -28 4 -52 15 l-45 20 -37 -43 c-20 -24 -39 -40 -42 -37 -3 3 1 23 8 45 8 21 17 47 20 57 7 22 17 22 105 -8z m639 -874 c8 -4 12 -19 10 -32 -3 -26 -7 -26 95 -13 45 6 49 5 83 -31 32 -34 35 -42 29 -74 -3 -20 -6 -51 -6 -69 0 -25 -8 -38 -35 -58 -41 -32 -43 -44 -6 -44 16 0 32 -3 35 -7 4 -3 29 -14 55 -22 42 -14 47 -19 47 -46 0 -39 -32 -55 -111 -55 -78 0 -124 9 -124 25 0 16 70 24 145 15 33 -4 62 -6 64 -3 3 2 -9 16 -25 32 -24 24 -41 30 -99 35 -54 6 -79 4 -107 -8 -60 -25 -49 6 12 34 48 23 98 65 89 75 -3 2 -21 0 -39 -5 -19 -6 -42 -8 -51 -5 -9 3 -22 -2 -30 -11 -7 -9 -24 -20 -38 -26 -33 -12 -111 -20 -111 -10 0 4 34 22 75 41 41 19 75 37 75 40 0 3 -7 15 -15 25 -8 11 -15 32 -15 46 0 15 -3 29 -6 33 -8 8 -56 -17 -74 -38 -15 -18 -82 -55 -100 -55 -20 0 -9 28 14 34 22 5 116 108 116 127 0 17 -26 9 -84 -26 -32 -19 -64 -35 -70 -35 -7 0 -17 -5 -24 -12 -7 -7 -12 -8 -12 -2 0 11 107 98 146 119 32 16 72 19 92 6z m-8 -363 c0 -11 -21 -25 -67 -45 -7 -3 -13 0 -13 6 0 6 17 19 38 30 45 24 42 24 42 9z m-1223 -139 c33 -31 73 -119 73 -161 0 -25 8 -42 31 -64 44 -42 71 -82 64 -95 -4 -6 -37 18 -80 60 -72 70 -74 71 -127 71 -46 0 -64 -6 -123 -42 -38 -24 -70 -48 -72 -55 -2 -6 17 -26 42 -44 25 -18 48 -43 51 -56 7 -28 16 -29 39 -3 9 10 33 24 52 31 30 9 36 9 48 -8 17 -21 19 -53 5 -53 -6 0 -13 7 -16 15 -15 37 -54 2 -54 -48 0 -33 43 -70 80 -70 40 0 24 -16 -24 -24 -34 -5 -40 -2 -81 42 l-45 47 -35 -31 c-20 -17 -40 -31 -46 -31 -6 0 -8 -16 -4 -44 8 -54 -12 -103 -61 -146 -35 -30 -86 -41 -99 -20 -3 6 4 10 17 10 13 0 33 7 45 15 28 19 55 93 51 136 -3 29 -7 35 -33 39 -27 5 -24 7 27 18 58 13 108 54 108 87 0 26 -59 82 -116 111 -53 27 -114 85 -114 110 0 6 -7 17 -15 24 -22 18 -18 35 11 50 22 12 27 12 35 0 5 -8 6 -27 3 -41 -4 -21 2 -35 26 -63 18 -20 36 -36 41 -36 4 0 13 19 18 43 32 132 76 212 133 241 45 23 111 16 145 -15z m-460 -134 c-4 -8 -2 -17 4 -21 6 -4 8 -22 4 -48 -9 -53 -14 -60 -32 -44 -24 19 -3 128 24 128 3 0 3 -7 0 -15z m-47 -330 c27 -14 66 -25 85 -25 29 0 65 -11 83 -25 1 -1 -7 -22 -18 -47 -13 -30 -32 -53 -55 -67 -19 -11 -35 -25 -35 -31 0 -25 -20 -6 -35 33 -14 38 -14 46 -1 85 12 33 13 44 3 47 -7 2 -29 9 -49 15 -21 6 -38 18 -38 26 0 19 2 18 60 -11z m19 -302 c26 -25 37 -27 124 -24 46 3 57 0 57 -13 0 -38 -96 -49 -158 -17 -39 20 -65 45 -75 73 -8 23 20 13 52 -19z m-75 -211 c44 -24 132 -109 122 -119 -2 -3 -42 24 -88 59 -45 35 -94 71 -108 81 l-25 18 25 -7 c14 -3 47 -18 74 -32z"/>
<path d="M813 4514 c-22 -23 -25 -31 -19 -71 8 -58 24 -84 110 -172 63 -66 70 -70 82 -54 24 33 123 236 119 243 -3 4 -38 24 -78 44 -59 29 -85 36 -131 36 -48 0 -61 -4 -83 -26z"/>
<path d="M2280 4537 c0 -7 4 -17 10 -23 5 -5 21 -32 34 -59 30 -62 166 -225 186 -222 16 2 88 125 119 203 l20 51 -144 32 c-156 34 -225 39 -225 18z"/>
<path d="M2836 4492 c-2 -4 -14 -32 -25 -62 l-21 -54 33 -35 c50 -55 59 -60 99 -61 48 0 67 20 66 71 0 47 -30 87 -89 125 -41 25 -55 29 -63 16z"/>
<path d="M1420 4629 c-37 -15 -67 -47 -108 -113 l-35 -59 39 -34 c94 -80 229 -130 409 -152 44 -6 93 -13 108 -17 l28 -7 -28 52 c-34 63 -116 167 -190 244 -46 47 -67 60 -120 77 -73 23 -69 22 -103 9z"/>
<path d="M1232 4377 c-5 -6 -32 -55 -61 -108 -49 -91 -61 -129 -43 -129 16 0 89 -55 158 -119 69 -63 69 -63 19 -32 -91 58 -150 101 -172 129 -12 14 -23 24 -25 22 -2 -3 -11 -22 -22 -42 l-18 -36 71 -104 c39 -57 103 -141 142 -188 38 -47 77 -97 85 -113 16 -30 12 -45 -35 -106 -49 -65 -23 -154 74 -260 48 -52 78 -72 169 -118 104 -52 156 -86 156 -104 0 -12 -26 -4 -130 36 -124 49 -161 74 -241 157 -48 50 -68 65 -76 57 -11 -11 -58 -9 -170 7 l-43 6 0 -60 c0 -74 29 -171 71 -236 36 -57 172 -193 208 -207 13 -5 85 -14 159 -19 112 -7 167 -5 312 11 96 10 189 22 205 25 44 9 117 48 144 78 20 22 23 32 18 71 -10 68 -27 94 -145 217 -59 62 -122 132 -140 155 -19 24 -46 50 -61 59 -16 9 -35 28 -44 43 -8 14 -49 62 -91 106 -86 90 -104 115 -83 115 7 0 56 -41 107 -90 65 -61 100 -88 110 -84 113 50 182 67 300 75 99 6 139 13 190 34 96 39 99 45 46 84 -25 17 -71 61 -103 97 l-57 65 -36 -40 c-46 -50 -106 -70 -156 -52 -31 11 -38 11 -54 -4 -52 -47 -239 -81 -282 -51 -12 9 -32 13 -44 10 -27 -7 -69 14 -112 57 -41 40 -79 109 -60 109 22 0 41 -17 33 -29 -9 -15 53 -90 93 -113 25 -15 31 -16 42 -4 6 8 10 32 8 52 -3 34 -7 39 -37 47 -40 10 -29 22 29 32 47 8 84 59 77 109 -7 52 -41 92 -113 132 -64 36 -76 56 -37 62 30 5 136 -87 162 -141 11 -24 21 -58 21 -75 0 -36 4 -37 79 -21 79 17 119 58 134 136 6 30 3 34 -31 52 -20 10 -53 22 -72 26 -19 3 -53 13 -75 21 -22 7 -98 23 -168 34 -140 22 -202 47 -313 126 -47 33 -64 41 -72 31z"/>
<path d="M2636 3981 c-86 -111 -188 -181 -265 -181 -11 0 -21 -5 -21 -10 0 -17 91 -70 150 -87 64 -18 75 -26 67 -47 -5 -12 -12 -14 -32 -6 -21 8 -34 4 -82 -27 -118 -75 -336 -155 -467 -172 -43 -5 -80 -11 -82 -14 -9 -9 115 -144 169 -185 30 -22 71 -63 91 -91 21 -28 43 -51 50 -51 18 0 195 78 225 99 14 10 58 35 98 54 182 92 386 255 428 342 25 55 14 97 -52 195 -57 83 -201 240 -222 240 -5 0 -30 -26 -55 -59z"/>
<path d="M1705 3880 c-24 -27 -22 -119 3 -138 30 -23 65 -11 76 26 7 26 5 42 -14 82 -26 55 -38 60 -65 30z"/>
<path d="M955 3323 c-50 -6 -166 -33 -231 -53 -99 -30 -199 -103 -235 -170 -19 -37 -15 -155 9 -220 11 -30 25 -71 32 -90 7 -19 14 -41 16 -47 2 -9 27 -12 87 -10 l84 2 -20 27 c-27 37 -19 42 28 18 21 -11 41 -18 43 -15 2 2 -7 34 -22 70 -16 39 -26 85 -26 115 0 44 4 52 33 74 35 26 134 59 149 50 19 -12 120 8 139 27 16 16 17 23 8 46 -7 16 -11 63 -11 106 l0 77 -26 -1 c-15 -1 -40 -4 -57 -6z"/>
<path d="M1089 2994 c-25 -31 -111 -64 -166 -64 -73 0 -107 -14 -100 -43 3 -12 13 -59 23 -104 l18 -82 81 -36 c44 -20 152 -73 241 -118 l161 -81 64 31 c99 48 287 133 296 133 4 0 19 9 32 19 l23 18 -28 44 c-40 61 -56 77 -62 61 -6 -18 -187 -15 -368 7 -83 10 -156 21 -162 25 -28 17 -7 26 58 26 l71 0 -58 58 c-33 31 -70 72 -84 90 -24 31 -27 32 -40 16z m175 -294 c-17 -18 -84 -45 -84 -35 0 6 84 55 95 55 5 0 0 -9 -11 -20z"/>
<path d="M905 2564 c-4 -31 -5 -57 -3 -60 2 -2 20 -10 40 -19 33 -13 38 -13 52 1 22 22 20 32 -12 62 -16 15 -34 37 -41 50 -19 35 -28 26 -36 -34z m65 -34 c0 -21 -15 -27 -25 -10 -7 12 2 30 16 30 5 0 9 -9 9 -20z"/>
<path d="M4285 2423 c-61 -21 -83 -24 -173 -20 -119 4 -124 -10 -10 -29 67 -11 78 -11 133 8 47 16 76 19 135 15 70 -5 150 -31 150 -49 0 -4 8 -8 18 -8 14 1 13 4 -8 21 -28 23 -155 90 -167 88 -5 -1 -39 -13 -78 -26z"/>
<path d="M1806 2365 c-42 -42 -76 -77 -76 -79 0 -1 42 -22 93 -45 50 -24 143 -68 206 -98 62 -30 134 -61 160 -70 25 -8 65 -29 89 -45 79 -54 66 -23 -19 49 -121 101 -281 255 -325 313 -21 27 -41 50 -45 50 -3 0 -41 -34 -83 -75z"/>
<path d="M2840 2346 c0 -15 80 -123 119 -160 84 -82 49 -6 -45 96 -46 49 -74 73 -74 64z"/>
<path d="M1586 2281 c-3 -4 -5 -30 -4 -56 1 -52 23 -85 58 -85 20 0 27 14 11 24 -5 3 -11 16 -14 28 -2 13 -8 31 -12 41 -5 12 -3 17 9 17 24 0 19 15 -9 28 -31 14 -32 14 -39 3z"/>
<path d="M3950 1908 c0 -20 73 -128 87 -128 36 0 22 43 -35 103 -38 39 -52 46 -52 25z"/>
<path d="M4534 1675 c-7 -17 44 -96 66 -103 16 -6 7 62 -11 84 -23 28 -49 36 -55 19z"/>
<path d="M610 1142 c0 -6 6 -17 13 -24 66 -72 134 -171 156 -230 17 -45 -9 -35 -83 32 -37 33 -71 58 -76 55 -13 -8 52 -97 139 -187 85 -90 168 -137 283 -161 40 -9 129 -27 198 -41 77 -16 148 -38 184 -56 100 -51 129 -36 48 24 -27 19 -61 54 -77 76 -46 66 -224 231 -315 291 -100 67 -270 162 -277 156 -2 -3 3 -22 12 -42 8 -21 13 -40 11 -42 -5 -6 -110 65 -146 99 -55 50 -70 61 -70 50z"/>
<path d="M2410 1090 c-27 -29 -70 -124 -70 -156 0 -11 17 -5 70 21 55 28 81 35 126 35 l57 0 -6 37 c-11 63 -36 88 -96 91 -47 3 -55 0 -81 -28z"/>
</g>
<g id="layer103" fill="#fefefe" stroke="none">
<path d="M0 2500 l0 -2500 2500 0 2500 0 0 2500 0 2500 -2500 0 -2500 0 0 -2500z m1358 2242 c-96 -98 -199 -254 -274 -414 -66 -140 -178 -274 -266 -319 -43 -22 -141 -26 -185 -7 -113 49 -352 279 -314 303 5 3 23 -14 39 -37 65 -93 224 -218 311 -244 61 -18 117 -3 191 51 80 59 91 99 38 143 -104 88 -117 104 -138 168 -19 57 -20 70 -10 115 7 28 23 63 37 79 38 46 137 65 177 35 11 -8 31 -15 44 -15 14 0 51 -18 82 -39 67 -46 61 -49 127 64 23 39 56 86 75 106 36 39 128 102 137 94 3 -3 -29 -40 -71 -83z m598 62 c19 -15 34 -30 34 -35 0 -5 -38 -9 -84 -9 -141 0 -137 -31 24 -179 71 -65 98 -98 125 -152 19 -38 35 -82 35 -99 0 -21 9 -40 28 -58 16 -15 38 -43 50 -62 38 -63 103 -117 153 -128 63 -12 97 3 137 64 l32 48 -78 80 c-106 109 -154 182 -160 246 -6 69 5 80 87 80 65 0 218 -35 289 -66 l33 -14 15 36 c9 20 33 65 54 100 30 50 35 64 23 68 -8 3 -161 6 -339 6 -311 0 -353 4 -306 28 30 16 568 41 672 31 53 -5 86 -3 114 7 50 18 118 18 161 0 50 -21 257 -161 315 -213 49 -44 174 -203 200 -253 7 -14 48 -75 90 -136 43 -61 101 -156 129 -211 27 -55 75 -143 105 -196 55 -95 64 -117 48 -117 -10 0 -124 171 -153 230 -20 41 -206 336 -318 505 -49 75 -191 225 -213 225 -7 0 -49 25 -93 55 -76 53 -152 85 -202 85 -12 0 -52 -12 -87 -26 -75 -30 -96 -56 -166 -209 -65 -139 -119 -244 -165 -315 -23 -36 -50 -80 -61 -98 -24 -43 -75 -72 -124 -72 -43 0 -129 51 -169 101 -13 17 -41 41 -62 55 -22 13 -39 31 -39 38 0 8 -40 61 -89 118 -190 221 -346 363 -448 409 -67 30 -86 56 -32 45 51 -10 95 -35 171 -98 102 -85 262 -243 310 -306 42 -56 60 -64 34 -15 -23 46 -78 107 -146 163 -64 54 -120 130 -120 163 0 29 59 95 89 100 54 8 63 6 97 -19z m1119 -133 c43 -24 45 -62 5 -92 -17 -13 -47 -38 -67 -55 l-36 -30 27 -66 c14 -37 26 -70 26 -74 0 -4 -16 -31 -35 -59 -55 -83 -101 -84 -172 -6 -34 37 -42 42 -43 26 0 -11 -7 -33 -15 -49 -8 -15 -15 -39 -15 -52 0 -13 -9 -48 -20 -77 l-21 -55 99 -98 c283 -285 269 -406 -76 -653 -131 -94 -238 -154 -394 -221 l-111 -49 2 -64 c2 -59 0 -68 -28 -99 -43 -50 -115 -85 -213 -104 l-86 -17 231 -233 c126 -129 232 -234 234 -234 2 0 -13 26 -34 58 -55 84 -100 173 -108 211 -9 41 9 77 47 97 25 13 32 13 61 -2 17 -9 74 -59 125 -111 52 -52 95 -93 97 -91 1 2 12 21 23 43 23 45 116 141 177 182 22 14 60 44 84 65 70 61 163 102 230 102 102 -1 225 -25 371 -75 30 -10 55 -17 56 -16 2 1 -7 36 -18 76 -17 61 -18 81 -9 111 6 21 11 65 11 100 0 56 15 140 42 230 29 95 117 185 226 231 54 22 55 22 69 3 14 -19 13 -29 -3 -68 -6 -16 -4 -18 14 -14 28 8 29 -15 2 -49 -24 -31 -27 -98 -5 -150 8 -19 15 -52 15 -72 1 -126 244 -423 440 -538 47 -27 100 -56 118 -63 17 -7 32 -17 32 -22 0 -17 -62 3 -144 46 -84 43 -252 190 -326 284 -56 71 -127 199 -141 253 -13 50 -25 61 -35 34 -4 -8 -13 -15 -21 -15 -16 0 -12 22 13 74 17 36 17 36 0 36 -8 0 -29 -12 -46 -27 -25 -21 -34 -23 -40 -13 -13 21 8 52 30 45 32 -10 60 43 60 115 0 67 -15 74 -26 12 -8 -44 -31 -85 -45 -77 -5 4 -3 15 6 28 16 23 20 57 7 57 -5 0 -20 -13 -35 -28 -27 -29 -35 -52 -17 -52 15 0 12 -26 -6 -41 -13 -10 -17 -10 -24 1 -5 8 -11 12 -13 10 -15 -16 -56 -112 -62 -143 -6 -32 -5 -36 9 -31 25 10 19 -19 -9 -44 -16 -14 -25 -32 -25 -51 0 -16 -3 -44 -6 -62 l-7 -34 26 23 c17 16 27 20 32 12 5 -8 10 -9 18 -1 20 20 37 12 37 -19 0 -30 21 -42 35 -20 12 19 25 10 20 -12 -5 -19 0 -26 27 -37 43 -19 128 -108 189 -198 45 -66 67 -116 83 -184 7 -30 38 -39 144 -39 147 0 298 66 408 177 69 70 141 200 121 219 -2 3 -24 0 -48 -5 -58 -13 -126 2 -211 46 -157 82 -263 252 -283 456 l-7 67 -44 0 c-31 0 -44 4 -44 14 0 22 26 37 53 31 19 -5 28 -2 36 13 25 47 0 95 -27 54 -21 -31 -44 -29 -36 3 6 23 4 25 -31 25 -42 0 -43 13 -1 44 23 18 40 21 109 19 109 -3 166 -17 258 -65 74 -38 159 -105 159 -125 0 -5 -6 -18 -14 -28 -14 -19 -15 -19 -35 -1 -12 11 -47 30 -78 43 -126 54 -199 82 -210 83 -15 0 -53 -62 -53 -89 0 -30 14 -26 54 15 22 23 37 31 41 24 11 -18 -28 -64 -64 -75 -26 -7 -31 -14 -27 -30 3 -11 6 -37 6 -57 0 -35 2 -38 30 -38 34 0 39 -14 10 -30 -40 -22 -26 -64 73 -209 35 -52 106 -104 179 -132 71 -26 187 -24 215 4 41 41 13 258 -45 360 -22 37 -35 34 -66 -13 -68 -102 -198 -206 -249 -198 -18 3 -14 8 23 27 74 39 191 165 219 236 35 88 45 96 70 54 30 -48 80 -181 91 -241 23 -118 3 -272 -49 -383 -32 -70 -102 -153 -185 -220 l-58 -48 48 -26 c27 -14 58 -41 70 -59 22 -32 42 -141 29 -161 -10 -18 -25 -13 -25 8 0 25 -44 77 -81 96 -32 17 -219 21 -219 5 0 -21 47 -41 86 -35 28 4 58 -1 104 -17 56 -21 67 -29 83 -62 23 -49 15 -57 -21 -19 -19 21 -44 34 -80 42 -88 19 -94 17 -87 -26 10 -60 13 -63 45 -63 16 0 30 -4 30 -10 0 -5 -6 -10 -12 -10 -76 -1 -172 -11 -187 -20 -28 -14 -187 -12 -246 4 -92 25 -130 45 -325 172 -48 32 -192 88 -329 130 -63 19 -136 44 -161 55 l-45 20 -37 -43 c-20 -24 -39 -41 -41 -38 -8 8 30 114 42 118 6 2 45 -8 88 -23 42 -14 113 -35 158 -46 177 -44 320 -110 497 -230 31 -21 98 -53 150 -70 88 -30 99 -31 206 -26 160 8 161 12 15 63 -76 28 -122 37 -205 43 -91 7 -117 13 -172 40 -35 17 -67 38 -70 46 -8 21 3 19 70 -12 43 -19 84 -28 156 -35 101 -8 186 -31 269 -74 83 -41 101 -29 48 31 -42 47 -69 60 -170 81 -77 15 -89 21 -149 72 -76 64 -126 89 -213 104 -73 12 -126 43 -157 92 -12 20 -27 36 -34 36 -6 0 -45 16 -86 36 -187 90 -337 129 -426 113 -118 -22 -321 -174 -442 -331 -11 -14 2 -33 103 -145 64 -70 142 -160 173 -200 32 -40 61 -72 66 -73 5 0 6 14 2 32 -4 21 -31 58 -79 107 -99 103 -142 172 -138 223 2 24 50 78 69 78 9 0 40 -24 70 -53 l53 -52 20 28 c27 35 61 35 89 -1 11 -15 57 -79 101 -142 94 -134 116 -160 89 -104 -31 65 -32 79 -9 107 11 15 28 27 38 27 20 0 105 -86 186 -187 31 -40 59 -73 61 -73 3 0 -7 22 -21 50 -14 27 -25 60 -25 73 0 27 35 77 53 77 7 0 51 -41 99 -91 l86 -91 25 17 c33 21 50 12 111 -56 l46 -51 26 31 c28 34 51 38 92 17 42 -22 117 -107 147 -167 32 -62 147 -197 153 -179 2 6 -10 29 -27 50 -46 58 -81 129 -81 166 0 24 8 39 31 58 17 14 36 26 43 26 21 0 98 -63 144 -119 l44 -52 33 21 c52 32 87 27 129 -20 55 -61 66 -97 66 -222 0 -92 -3 -110 -17 -115 -11 -4 -27 6 -51 33 -95 107 -275 294 -279 290 -2 -2 21 -44 51 -92 31 -48 56 -93 56 -99 0 -20 -24 -35 -55 -35 -24 0 -35 -6 -43 -25 -16 -34 -37 -31 -73 7 -19 22 -29 43 -29 65 0 19 -9 43 -23 59 l-23 27 -43 -31 -42 -31 -34 20 c-33 20 -68 56 -152 157 -42 49 -115 111 -98 81 5 -7 31 -46 58 -85 51 -74 59 -116 25 -122 -31 -6 -120 95 -171 195 -53 102 -78 132 -45 53 24 -59 15 -100 -23 -100 -12 0 -32 -11 -45 -25 -13 -14 -30 -25 -38 -25 -21 0 -66 81 -66 119 0 25 -11 44 -50 84 l-49 52 5 -36 c8 -47 -16 -73 -57 -64 -26 6 -29 4 -29 -20 0 -29 -24 -43 -49 -28 -32 20 -63 77 -57 105 3 15 1 30 -5 33 -5 4 -39 51 -76 106 -86 131 -112 148 -33 23 11 -17 10 -25 -5 -47 -23 -35 -56 -43 -89 -22 -28 18 -24 23 -41 -59 -2 -11 12 -48 31 -84 40 -77 42 -94 11 -119 -23 -18 -57 -76 -57 -97 0 -6 27 -40 60 -76 33 -36 74 -84 92 -108 18 -24 43 -55 54 -70 l22 -26 36 32 c56 49 97 62 200 62 104 0 142 14 228 79 59 44 95 56 134 47 21 -6 25 -12 22 -34 -3 -30 -8 -29 95 -16 45 6 49 5 83 -31 32 -34 35 -42 29 -74 -3 -20 -6 -51 -6 -69 0 -25 -8 -38 -35 -58 -19 -15 -34 -30 -34 -34 0 -4 22 -10 49 -14 107 -14 149 -51 117 -101 -16 -25 -19 -25 -159 -25 -108 0 -166 -5 -237 -21 -101 -22 -89 -22 -500 6 -90 7 -195 39 -214 66 -7 11 -43 40 -79 63 -66 43 -66 43 -84 24 -26 -29 -128 -78 -162 -78 -16 0 -32 -3 -34 -7 -3 -5 1 -39 8 -77 13 -67 21 -82 99 -180 16 -21 39 -67 51 -104 21 -67 22 -67 61 -70 72 -6 84 -60 31 -138 -19 -27 -37 -64 -40 -82 -14 -71 -98 -141 -169 -142 -18 0 -31 -8 -39 -23 -37 -72 -180 -176 -276 -201 -52 -14 -87 -15 -233 -7 -131 7 -174 13 -183 24 -8 10 -42 17 -107 21 -97 7 -217 28 -265 46 -19 7 -25 15 -21 28 8 24 -19 96 -37 100 -17 4 -27 -26 -27 -85 0 -36 -3 -43 -19 -43 -27 0 -77 61 -85 105 -6 31 -3 41 15 61 l22 23 -29 12 c-16 6 -56 15 -89 19 -96 14 -272 48 -334 66 -83 24 -117 40 -175 84 -29 22 -58 40 -65 40 -24 0 -204 157 -251 218 -43 59 -127 230 -235 481 -40 93 -38 102 21 121 32 11 39 9 75 -16 22 -15 56 -45 76 -68 96 -108 201 -192 319 -255 195 -105 315 -182 459 -295 113 -90 174 -152 236 -243 49 -72 79 -92 79 -53 0 11 25 62 57 113 53 87 56 96 58 162 1 43 8 83 19 103 9 18 15 36 12 41 -3 4 -34 16 -68 26 -104 29 -127 45 -294 207 -94 91 -172 257 -195 413 -6 39 -15 84 -20 100 -5 17 -12 91 -15 165 -4 74 -12 149 -19 165 -7 17 -38 53 -71 80 -99 85 -287 279 -329 340 -49 71 -150 175 -228 234 -32 24 -56 46 -53 49 3 3 28 -7 55 -21 27 -15 53 -27 59 -27 5 0 -4 35 -21 78 -25 64 -31 96 -35 184 -4 96 -2 110 17 141 34 56 104 113 191 157 86 43 136 55 264 65 44 3 83 8 87 10 4 3 68 5 143 6 l136 1 -6 52 c-7 59 6 94 50 135 14 14 26 28 26 33 0 4 -55 82 -122 172 -68 90 -131 178 -140 196 l-18 31 -82 -87 c-90 -94 -138 -123 -206 -124 -56 0 -143 31 -212 77 -100 66 -310 283 -275 283 3 0 60 -50 128 -111 138 -125 197 -166 280 -197 68 -25 126 -28 165 -8 35 19 131 118 171 178 17 26 50 89 74 140 23 51 79 161 124 244 63 114 96 163 136 201 60 57 84 68 132 59 97 -19 332 -233 400 -366 10 -19 41 -66 69 -105 28 -38 63 -88 77 -110 52 -81 169 -185 254 -227 96 -47 131 -47 209 5 98 65 178 190 226 352 92 309 108 349 162 411 57 65 121 77 193 35z m-988 -21 c17 -10 37 -29 44 -41 10 -20 9 -21 -7 -14 -69 28 -75 29 -92 18 -12 -8 -16 -22 -15 -52 1 -23 0 -41 -2 -41 -1 0 -8 23 -15 51 -12 47 -11 52 11 75 27 29 35 30 76 4z m1131 -74 c64 -33 247 -267 383 -488 59 -95 229 -433 229 -454 0 -45 -30 0 -135 201 -125 240 -373 603 -484 709 -45 43 -42 58 7 32z m265 -511 c117 -143 235 -354 225 -402 -2 -11 -28 29 -67 104 -35 67 -100 171 -145 230 -103 136 -103 136 -80 131 10 -2 40 -30 67 -63z m391 -24 c61 -91 116 -189 116 -207 0 -25 -19 -15 -36 19 -9 17 -38 63 -63 101 -25 37 -54 80 -63 95 -19 28 -24 61 -9 61 4 0 29 -31 55 -69z m146 -545 c0 -14 -36 -46 -52 -46 -14 0 -9 23 9 42 19 22 43 24 43 4z m-85 -17 c4 -6 -1 -16 -10 -23 -15 -11 -16 -15 -4 -34 15 -24 8 -37 -15 -29 -15 6 -15 38 0 85 4 15 20 16 29 1z m365 -123 c0 -24 -23 -41 -41 -30 -10 6 -12 38 -2 47 3 4 15 7 25 7 12 0 18 -7 18 -24z m-275 4 c8 -13 -14 -52 -26 -45 -15 10 -11 55 5 55 8 0 18 -4 21 -10z m72 -60 c-1 -22 -4 -40 -7 -40 -3 1 -13 12 -23 26 -22 29 -16 54 12 54 16 0 19 -7 18 -40z m-193 -16 c10 -26 7 -30 -24 -32 -23 -2 -30 2 -30 16 0 10 3 22 7 25 12 13 41 7 47 -9z m101 -34 c10 -16 -16 -43 -28 -31 -11 11 -2 41 12 41 5 0 13 -5 16 -10z m-324 -60 c22 -23 39 -50 39 -63 -1 -31 -69 -104 -81 -86 -5 9 -2 22 7 34 26 36 26 45 3 64 -22 18 -26 18 -41 4 -17 -15 -18 -14 -18 12 0 24 33 75 48 75 2 0 22 -18 43 -40z m207 -17 c-4 -22 -22 -20 -26 1 -2 10 3 16 13 16 10 0 15 -7 13 -17z m82 -6 c0 -17 -38 -52 -47 -44 -10 11 15 57 32 57 8 0 15 -6 15 -13z m-202 -84 c-5 -25 -28 -28 -28 -4 0 12 6 21 16 21 9 0 14 -7 12 -17z m-152 -35 c4 -6 -5 -22 -22 -36 -26 -22 -29 -23 -32 -8 -4 17 24 56 39 56 4 0 11 -5 15 -12z m87 -35 c8 -7 -11 -33 -24 -33 -5 0 -9 9 -9 20 0 19 20 27 33 13z m567 -926 c0 -19 -21 -37 -44 -37 -18 0 -18 1 4 25 26 28 40 32 40 12z m-2270 -1916 c54 -31 130 -105 130 -126 0 -22 -4 -20 -68 32 -31 25 -81 62 -110 80 -29 19 -50 38 -46 44 7 13 37 3 94 -30z"/>
<path d="M815 4515 c-50 -49 -27 -122 71 -223 40 -43 74 -80 74 -84 0 -26 23 4 65 85 26 50 56 107 67 124 11 18 17 37 14 42 -3 4 -39 25 -79 45 -94 46 -173 51 -212 11z"/>
<path d="M2280 4536 c0 -8 4 -17 9 -20 5 -3 20 -30 34 -60 22 -46 162 -215 186 -224 7 -2 112 182 130 230 l10 25 -144 32 c-160 34 -225 39 -225 17z"/>
<path d="M3016 4652 c-6 -10 11 -49 24 -57 7 -4 19 0 28 8 12 13 13 19 3 30 -13 17 -49 29 -55 19z"/>
<path d="M2901 4605 c-17 -20 -31 -39 -31 -43 0 -4 14 -16 31 -26 38 -22 76 -14 91 20 10 20 8 29 -9 52 -29 38 -46 38 -82 -3z"/>
<path d="M1415 4621 c-29 -12 -69 -55 -107 -113 l-32 -51 40 -33 c94 -81 229 -131 409 -153 44 -6 93 -13 109 -17 l28 -7 -27 49 c-39 68 -78 118 -163 209 -94 101 -189 143 -257 116z"/>
<path d="M2825 4467 c-29 -70 -29 -85 1 -125 40 -52 54 -61 96 -62 48 0 67 20 66 71 0 47 -30 87 -89 125 -50 31 -57 30 -74 -9z"/>
<path d="M1232 4377 c-14 -17 -114 -219 -110 -222 2 -1 22 -14 45 -28 23 -15 77 -58 120 -97 181 -163 395 -198 429 -72 14 53 -50 138 -137 182 -41 22 -47 43 -13 48 26 4 123 -71 157 -120 19 -29 27 -54 27 -85 0 -48 1 -49 79 -32 79 17 119 58 134 136 6 30 3 34 -31 52 -20 10 -53 22 -72 26 -19 3 -53 13 -75 21 -22 7 -98 23 -168 34 -140 22 -202 47 -313 126 -47 33 -64 41 -72 31z"/>
<path d="M1089 4095 l-16 -35 50 -72 c27 -40 82 -115 121 -166 99 -131 136 -183 136 -192 0 -4 -17 -32 -37 -61 -61 -88 -44 -163 62 -278 48 -51 78 -73 169 -118 119 -60 166 -89 166 -104 0 -16 -23 -10 -131 33 -134 53 -170 76 -250 160 -48 50 -68 65 -76 57 -11 -11 -58 -9 -170 7 l-43 6 0 -60 c0 -72 29 -171 68 -232 33 -53 183 -201 214 -213 12 -4 82 -12 157 -17 111 -7 166 -5 311 11 96 10 189 22 205 25 44 9 117 48 144 78 20 22 23 32 18 71 -10 68 -27 94 -145 217 -59 62 -122 132 -140 155 -19 24 -46 50 -61 59 -16 9 -35 28 -44 43 -8 14 -54 65 -101 113 -80 80 -104 118 -74 118 7 0 56 -43 109 -96 89 -89 98 -95 119 -84 72 38 170 62 290 70 99 7 139 14 190 35 96 39 99 45 46 84 -25 17 -71 61 -103 97 l-57 65 -36 -40 c-46 -50 -106 -70 -156 -52 -30 11 -37 10 -60 -8 -29 -23 -94 -45 -181 -62 -55 -10 -66 -9 -88 5 -17 11 -36 15 -58 11 -28 -5 -40 -1 -74 27 -22 18 -55 54 -72 79 -18 29 -51 59 -83 78 -29 17 -78 49 -108 71 -30 23 -81 59 -113 81 -32 22 -61 47 -64 55 -8 22 -17 16 -34 -21z"/>
<path d="M1991 4024 c-26 -43 -26 -51 -1 -89 11 -17 20 -47 20 -68 l0 -38 57 3 c52 3 59 6 71 32 18 36 12 48 -65 130 l-62 65 -20 -35z"/>
<path d="M2657 4000 c-50 -70 -129 -151 -167 -170 -20 -10 -60 -22 -89 -26 -28 -4 -51 -11 -51 -16 0 -15 93 -68 150 -85 64 -18 75 -26 67 -47 -5 -12 -12 -14 -32 -6 -21 8 -34 4 -82 -27 -106 -68 -332 -154 -438 -168 -107 -13 -116 -15 -108 -29 21 -35 122 -141 169 -176 28 -21 68 -61 88 -89 21 -28 43 -51 50 -51 18 0 195 78 225 99 14 10 58 35 98 55 116 58 248 151 333 236 131 129 133 169 14 330 -50 69 -159 186 -184 200 -11 6 -23 -2 -43 -30z"/>
<path d="M1900 3917 c0 -7 7 -22 15 -33 8 -10 15 -31 15 -46 0 -35 16 -44 31 -17 12 23 6 74 -12 96 -15 17 -49 17 -49 0z"/>
<path d="M1804 3895 c-4 -8 -1 -22 6 -30 7 -8 15 -38 19 -66 l6 -51 28 22 c34 27 36 69 5 110 -23 32 -55 39 -64 15z"/>
<path d="M1702 3877 c-12 -13 -20 -26 -16 -29 3 -3 8 -28 12 -55 7 -47 8 -48 42 -48 29 0 36 5 44 27 8 22 5 38 -14 78 -13 27 -29 50 -35 50 -6 0 -21 -10 -33 -23z"/>
<path d="M1517 3863 c-11 -10 12 -40 58 -79 38 -31 47 -34 61 -24 10 9 14 26 12 49 -3 35 -4 36 -53 41 -27 3 -55 9 -61 12 -6 4 -14 5 -17 1z"/>
<path d="M955 3323 c-50 -6 -166 -33 -231 -53 -99 -30 -199 -103 -235 -170 -19 -37 -15 -155 9 -220 11 -30 25 -71 32 -90 7 -19 14 -41 16 -47 2 -9 27 -12 87 -10 l84 2 -20 27 c-27 37 -19 42 28 18 21 -11 41 -18 43 -15 2 2 -7 34 -22 70 -16 39 -26 85 -26 115 0 44 4 52 33 74 35 26 134 59 149 50 18 -12 120 8 138 26 16 16 17 22 4 71 -9 32 -11 73 -8 106 l7 53 -29 -1 c-16 -1 -42 -4 -59 -6z"/>
<path d="M1089 2994 c-25 -31 -111 -64 -166 -64 -73 0 -107 -14 -100 -43 3 -12 13 -59 23 -104 l18 -82 81 -36 c44 -20 152 -73 241 -118 l161 -81 64 31 c99 48 287 133 296 133 4 0 19 9 32 19 l23 18 -28 44 c-15 24 -29 46 -31 48 -2 3 -52 3 -112 2 -111 -2 -370 22 -452 43 -76 19 -57 31 43 27 l92 -3 -61 58 c-33 33 -71 74 -85 92 -23 31 -26 32 -39 16z m189 -281 c-6 -31 -67 -63 -119 -63 -27 0 -49 5 -49 10 0 6 8 10 18 10 9 1 44 14 77 30 72 34 77 35 73 13z"/>
<path d="M3582 2895 c-11 -8 -27 -12 -36 -9 -19 7 -19 3 -7 -28 5 -13 12 -36 16 -52 6 -27 7 -27 20 -10 10 15 16 16 26 7 9 -9 6 -14 -10 -25 -33 -20 -27 -41 9 -33 35 8 38 -3 13 -41 -14 -22 -14 -27 -2 -35 23 -14 90 -10 154 10 83 26 89 41 40 91 -51 53 -111 94 -124 85 -14 -8 -14 -62 -1 -70 11 -7 4 -25 -10 -25 -17 0 -37 56 -28 80 17 45 -22 81 -60 55z"/>
<path d="M1768 2763 c-16 -4 -16 -8 6 -46 22 -38 23 -45 11 -73 -8 -19 -30 -41 -59 -57 -43 -24 -73 -37 -244 -103 -37 -14 -71 -30 -75 -34 -11 -10 39 -40 123 -74 36 -15 86 -38 112 -51 26 -14 50 -20 53 -15 3 5 19 35 36 67 40 76 56 93 91 93 31 0 32 7 2 95 -8 22 -14 62 -14 89 0 41 5 53 34 82 l34 34 -46 -1 c-26 -1 -55 -3 -64 -6z"/>
<path d="M3815 2664 c-33 -15 -70 -23 -107 -23 -32 -1 -58 -5 -58 -10 0 -17 31 -34 77 -42 53 -10 144 -51 189 -85 17 -13 34 -24 38 -24 20 0 -47 174 -76 197 -9 7 -28 3 -63 -13z"/>
<path d="M908 2568 c-5 -60 1 -72 42 -87 23 -8 33 -7 45 5 21 22 19 32 -13 62 -16 15 -34 37 -41 50 -19 35 -29 26 -33 -30z m62 -38 c0 -21 -15 -27 -25 -10 -7 12 2 30 16 30 5 0 9 -9 9 -20z"/>
<path d="M620 2592 c0 -19 201 -220 236 -237 30 -14 51 -16 120 -10 52 4 84 3 84 -3 0 -18 -25 -30 -77 -37 -67 -9 -68 -24 -5 -65 26 -17 59 -49 74 -70 36 -49 74 -159 82 -235 22 -198 28 -238 47 -312 60 -242 146 -376 319 -493 118 -80 213 -99 314 -63 130 47 182 194 148 423 -10 64 -8 91 9 190 11 63 25 131 30 150 6 19 11 50 12 69 2 38 9 33 -213 121 -58 23 -120 49 -138 57 -19 9 -37 12 -42 7 -16 -17 -110 -319 -125 -399 -7 -44 -18 -131 -23 -193 -10 -111 -21 -147 -42 -126 -13 13 6 392 25 479 8 38 15 77 15 85 0 8 -29 35 -65 59 -91 62 -97 71 -47 71 31 0 51 -8 87 -35 l46 -36 10 30 c6 16 19 47 30 67 10 21 16 41 11 45 -4 3 -50 25 -102 48 -96 42 -352 165 -380 182 -8 5 -43 22 -78 38 -34 16 -115 61 -180 99 -144 86 -182 105 -182 94z"/>
<path d="M1040 2501 c0 -63 9 -81 30 -56 18 22 30 18 30 -10 0 -14 8 -29 20 -35 20 -11 21 -9 15 42 -9 74 -13 84 -27 70 -20 -20 -36 -13 -40 15 -2 14 -9 28 -15 31 -10 3 -13 -13 -13 -57z"/>
<path d="M2016 2540 c29 -56 200 -262 369 -445 109 -118 215 -244 215 -256 0 -23 -35 -39 -84 -39 -62 0 -304 58 -393 95 -71 28 -73 29 -73 15 0 -17 316 -215 550 -345 137 -77 330 -206 396 -266 29 -26 61 -52 71 -57 29 -15 213 -31 416 -37 154 -4 199 -2 250 11 43 11 104 16 200 16 75 0 137 4 137 8 0 19 -69 49 -125 55 -54 6 -68 3 -143 -29 -94 -40 -92 -40 -92 -26 0 6 46 33 103 59 128 60 186 116 94 90 -21 -5 -42 -7 -48 -3 -6 3 -20 -3 -32 -14 -20 -18 -115 -50 -194 -67 -26 -5 -33 -3 -33 9 0 11 23 22 73 37 60 18 141 52 156 65 1 1 -4 13 -13 26 -9 12 -16 34 -16 49 0 14 -3 29 -6 32 -9 8 -43 -10 -75 -39 -24 -23 -188 -99 -196 -91 -17 18 42 57 108 71 16 3 45 28 73 62 72 88 58 98 -45 34 -97 -61 -126 -72 -219 -81 -126 -13 -190 -33 -221 -69 -14 -16 -30 -30 -35 -29 -5 0 -34 35 -64 77 -56 78 -242 271 -360 373 -36 31 -63 59 -59 63 11 12 88 -37 155 -98 l69 -64 13 39 c13 38 13 40 -25 93 -55 78 -122 152 -391 439 -35 37 -65 67 -67 67 -6 0 149 -280 198 -360 26 -41 47 -80 47 -87 0 -21 -20 -25 -46 -8 -14 9 -165 156 -335 328 -171 172 -307 305 -303 297z"/>
<path d="M1171 2455 c1 -52 12 -88 26 -92 17 -6 5 97 -13 117 -12 12 -14 9 -13 -25z"/>
<path d="M1245 2393 c4 -32 12 -64 17 -70 19 -23 29 -14 23 20 -5 24 -2 37 9 46 9 8 16 17 16 22 0 8 -52 39 -66 39 -3 0 -3 -26 1 -57z"/>
<path d="M4300 2428 c-87 -31 -165 -41 -227 -28 -59 13 -77 8 -44 -10 37 -20 157 -22 219 -4 72 21 183 14 241 -15 22 -12 41 -17 41 -12 0 9 -152 92 -167 90 -4 -1 -33 -10 -63 -21z"/>
<path d="M1806 2365 c-42 -42 -76 -77 -76 -79 0 -1 42 -22 93 -45 50 -24 143 -67 205 -97 62 -30 141 -64 175 -76 34 -11 76 -30 92 -41 36 -24 48 -36 -156 156 -92 86 -184 179 -205 207 -21 27 -41 50 -45 50 -3 0 -41 -34 -83 -75z"/>
<path d="M1330 2385 c0 -19 37 -94 58 -117 31 -36 43 -22 40 45 -3 57 -5 62 -25 60 -11 -1 -27 4 -33 12 -16 20 -40 19 -40 0z m78 -79 c3 -15 1 -16 -17 -6 -12 6 -19 16 -15 21 9 15 28 5 32 -15z"/>
<path d="M1472 2278 c3 -58 5 -63 31 -72 36 -13 51 2 49 50 -2 42 -34 84 -64 84 -17 0 -19 -7 -16 -62z m56 -16 c3 -19 -1 -23 -15 -20 -10 2 -19 14 -21 26 -3 19 1 23 15 20 10 -2 19 -14 21 -26z"/>
<path d="M2889 2278 c32 -47 106 -121 100 -100 -6 17 -112 141 -122 141 -4 1 5 -18 22 -41z"/>
<path d="M1585 2280 c-4 -6 -4 -33 0 -61 5 -37 13 -54 31 -66 28 -18 43 -11 25 11 -19 22 -22 86 -5 86 23 0 16 16 -11 28 -32 15 -32 15 -40 2z"/>
<path d="M1690 2206 c0 -39 18 -96 31 -96 5 0 9 17 9 38 0 21 6 44 13 51 10 10 8 15 -7 27 -32 23 -46 17 -46 -20z"/>
<path d="M1782 2141 c0 -52 3 -62 24 -76 49 -32 85 -6 64 45 -7 16 -16 30 -20 30 -4 0 -21 14 -38 31 l-30 31 0 -61z m59 -44 c-1 -12 -15 -9 -19 4 -3 6 1 10 8 8 6 -3 11 -8 11 -12z"/>
<path d="M1900 2124 c0 -37 23 -104 36 -104 8 0 14 7 14 15 0 25 18 17 35 -15 16 -32 42 -43 30 -12 -4 9 -9 34 -12 55 -6 41 -19 55 -36 38 -17 -17 -27 -13 -37 14 -11 28 -30 34 -30 9z"/>
<path d="M2035 2053 c11 -47 34 -93 44 -93 6 0 11 3 11 6 0 15 -24 90 -33 102 -17 22 -29 13 -22 -15z"/>
<path d="M2106 2018 c11 -39 31 -72 53 -92 20 -18 23 -18 38 -3 13 13 14 24 7 59 -8 39 -12 43 -36 40 -14 -2 -29 2 -33 7 -3 6 -13 11 -21 11 -11 0 -13 -6 -8 -22z m75 -61 c-1 -12 -15 -9 -19 4 -3 6 1 10 8 8 6 -3 11 -8 11 -12z"/>
<path d="M3960 1903 c0 -17 65 -113 77 -113 20 0 16 22 -12 62 -24 35 -65 68 -65 51z"/>
<path d="M2039 1879 c0 -2 -4 -42 -9 -89 -4 -47 -13 -114 -20 -150 -11 -58 -10 -76 9 -165 12 -54 21 -115 21 -135 0 -58 -27 -133 -72 -201 -35 -52 -43 -72 -46 -123 -2 -34 -8 -65 -14 -71 -14 -16 -28 15 -28 64 0 37 -2 42 -17 36 -10 -4 -30 -12 -45 -17 -39 -14 -40 -68 -3 -88 33 -18 31 -30 -12 -62 -39 -30 -71 -35 -105 -17 -29 16 -6 29 50 29 l44 0 -21 34 c-12 18 -21 45 -21 59 0 41 -21 44 -51 8 -33 -40 -51 -104 -38 -137 4 -13 24 -31 42 -40 30 -15 36 -15 72 0 26 11 42 13 49 6 6 -6 -3 -15 -29 -26 -36 -15 -52 -15 -116 1 -23 6 -27 3 -37 -33 -18 -59 -16 -75 8 -67 26 8 50 -11 50 -40 0 -12 9 -32 20 -45 18 -21 19 -25 5 -40 -28 -31 -19 -42 30 -34 36 5 46 3 51 -10 4 -10 -1 -25 -11 -36 -10 -11 -16 -21 -14 -23 2 -1 17 -9 34 -17 33 -17 46 -50 21 -50 -30 0 -16 -17 23 -28 21 -7 44 -19 51 -27 10 -12 6 -16 -22 -23 l-33 -9 44 -13 c23 -8 45 -19 48 -26 3 -8 58 -14 181 -19 142 -5 190 -4 241 9 85 20 96 31 76 79 -24 59 -20 122 13 163 l27 34 88 0 c73 0 96 4 135 24 64 33 96 64 127 127 26 51 27 53 9 67 -25 18 -104 9 -195 -23 -69 -24 -70 -24 -89 -5 -25 25 -37 25 -50 1 -17 -32 -11 -66 14 -90 24 -23 41 -24 90 -5 23 9 20 -23 -3 -36 -11 -5 -37 -10 -57 -10 -32 0 -44 7 -81 46 l-43 46 -35 -31 c-20 -17 -40 -31 -46 -31 -6 0 -8 -16 -4 -44 9 -54 -12 -103 -63 -147 -30 -27 -41 -30 -75 -26 -22 3 -44 10 -50 16 -7 7 1 8 26 4 25 -4 44 0 61 10 30 20 59 93 54 138 -3 29 -7 35 -33 39 -27 5 -24 7 27 18 58 13 108 54 108 87 0 26 -59 82 -116 111 -53 27 -114 85 -114 110 0 6 -7 17 -15 24 -22 18 -18 35 11 50 22 12 27 12 35 0 5 -8 6 -27 3 -41 -4 -21 2 -35 26 -63 18 -20 36 -36 41 -36 4 0 13 19 18 43 33 135 77 213 137 242 47 22 107 15 141 -17 35 -31 73 -115 73 -159 0 -26 8 -43 31 -65 44 -42 71 -82 64 -95 -4 -6 -37 18 -80 60 -72 70 -73 71 -126 71 -46 0 -65 -7 -123 -43 -38 -23 -71 -47 -73 -54 -2 -6 17 -26 42 -44 25 -18 48 -43 51 -56 7 -28 16 -29 39 -3 9 10 33 24 51 30 31 11 36 9 53 -11 l18 -23 49 21 c27 11 65 24 84 28 19 4 40 12 47 17 18 15 -14 89 -72 166 -50 65 -82 148 -99 253 -7 42 -66 103 -110 113 -65 16 -268 -46 -363 -110 -37 -24 -68 -42 -70 -40 -18 17 96 117 166 145 17 8 31 17 31 21 0 12 -95 97 -128 114 -18 9 -32 22 -32 29 0 6 17 31 39 55 45 49 68 52 126 17 22 -13 68 -37 103 -54 67 -32 84 -58 30 -47 -32 6 -43 11 -141 66 -55 30 -59 31 -82 16 -14 -9 -25 -22 -24 -29 1 -6 35 -43 75 -80 l75 -69 52 9 c134 21 218 1 258 -63 16 -27 27 -34 53 -34 42 0 141 59 141 84 0 13 -47 46 -165 116 -307 183 -467 287 -552 360 -21 18 -38 31 -39 29z m68 -874 c-4 -8 -2 -17 4 -21 6 -4 8 -22 4 -48 -9 -53 -14 -60 -32 -44 -24 19 -3 128 24 128 3 0 3 -7 0 -15z m-57 -325 c33 -17 75 -30 95 -30 29 0 65 -11 83 -25 1 -1 -7 -22 -18 -47 -13 -30 -32 -53 -55 -67 -19 -11 -35 -25 -35 -31 0 -25 -20 -6 -35 33 -14 38 -14 46 -1 85 12 33 13 44 3 47 -7 2 -34 10 -62 18 -31 9 -51 20 -53 31 -5 23 10 20 78 -14z m16 -295 c42 -38 49 -39 137 -36 46 3 57 0 57 -13 0 -22 -32 -36 -80 -36 -64 0 -128 38 -156 92 -19 38 -6 35 42 -7z"/>
<path d="M2112 568 c2 -13 8 -23 13 -23 6 0 11 10 13 23 2 15 -2 22 -13 22 -11 0 -15 -7 -13 -22z"/>
<path d="M4540 1662 c0 -10 13 -33 30 -52 27 -33 29 -34 30 -12 0 30 -16 59 -40 72 -17 9 -20 8 -20 -8z"/>
<path d="M352 1438 c-34 -43 -56 -128 -33 -128 7 0 61 119 61 135 0 10 -18 5 -28 -7z"/>
<path d="M630 1115 c0 -2 19 -28 43 -57 46 -57 89 -126 106 -170 16 -44 -7 -35 -79 27 -35 30 -68 55 -72 55 -20 0 42 -88 120 -171 96 -101 173 -147 294 -172 40 -9 129 -27 198 -41 77 -16 148 -38 184 -56 100 -51 129 -36 48 24 -27 19 -61 54 -77 76 -46 66 -224 231 -315 291 -100 67 -270 162 -277 156 -2 -3 3 -22 12 -42 8 -21 13 -40 11 -42 -6 -6 -87 49 -140 94 -36 30 -56 40 -56 28z"/>
<path d="M2410 1090 c-28 -29 -70 -124 -70 -156 0 -11 17 -6 68 21 55 28 79 35 126 35 l59 0 -6 37 c-11 63 -36 88 -96 91 -47 3 -55 0 -81 -28z"/>
<path d="M2721 531 c-88 -49 -100 -86 -13 -42 36 18 90 68 81 74 -2 2 -33 -13 -68 -32z"/>
<path d="M2528 451 c-27 -27 -48 -53 -48 -58 0 -13 34 -43 48 -43 18 0 72 91 72 123 0 39 -18 33 -72 -22z"/>
</g>


</svg>