<!DOCTYPE svg PUBLIC "-//W3C//DTD SVG 20010904//EN" "http://www.w3.org/TR/2001/REC-SVG-20010904/DTD/svg10.dtd">
<svg version="1.0" xmlns="http://www.w3.org/2000/svg" width="250px" height="250px" viewBox="0 0 5000 5000" preserveAspectRatio="xMidYMid meet">
<g id="layer101" fill="#19309c" stroke="none">
 <path d="M1364 4792 c-60 -39 -107 -94 -159 -187 -51 -90 -48 -89 -117 -44 -34 21 -71 39 -83 39 -11 0 -30 7 -41 15 -40 30 -139 11 -177 -35 -14 -16 -30 -51 -37 -79 -10 -45 -9 -58 10 -115 21 -64 34 -80 138 -168 53 -44 42 -84 -38 -143 -74 -54 -130 -69 -191 -51 -87 26 -246 151 -311 244 -16 23 -34 40 -39 37 -36 -23 201 -256 306 -299 53 -22 147 -21 193 3 93 47 193 170 275 337 83 171 168 297 265 396 42 43 74 80 71 83 -3 3 -33 -12 -65 -33z m-337 -288 c40 -20 76 -41 79 -45 3 -5 -3 -24 -14 -42 -11 -17 -41 -74 -67 -124 -42 -81 -65 -111 -65 -85 0 4 -34 41 -74 84 -98 101 -121 174 -71 223 39 40 118 35 212 -11z"/>
 <path d="M1859 4823 c-29 -5 -89 -71 -89 -99 0 -35 51 -101 139 -182 82 -75 152 -165 138 -178 -2 -3 -21 17 -40 43 -44 59 -216 229 -315 311 -76 63 -120 88 -171 98 -54 11 -35 -15 32 -45 101 -45 263 -193 448 -409 49 -57 89 -110 89 -118 0 -7 17 -25 39 -38 21 -14 49 -38 62 -55 41 -51 126 -101 171 -101 50 0 97 28 122 72 11 18 38 62 61 98 46 72 114 203 170 325 64 141 87 170 161 199 35 14 75 26 87 26 50 0 126 -32 202 -85 44 -30 86 -55 93 -55 22 0 164 -150 213 -225 112 -169 298 -464 318 -505 29 -59 143 -230 153 -230 16 0 7 22 -48 117 -30 53 -78 141 -105 196 -28 55 -86 150 -129 211 -42 61 -83 122 -90 136 -26 50 -151 209 -200 253 -60 54 -261 189 -314 211 -47 20 -111 20 -162 2 -28 -10 -61 -12 -114 -7 -41 4 -154 4 -250 0 -397 -17 -440 -22 -440 -50 0 -5 145 -9 324 -9 178 0 331 -3 339 -6 12 -4 7 -18 -23 -68 -21 -35 -46 -80 -54 -100 -14 -33 -18 -36 -36 -26 -21 11 -73 27 -180 55 -30 8 -85 14 -121 15 -82 0 -93 -10 -87 -80 6 -64 54 -137 160 -246 l78 -80 -32 -48 c-40 -61 -74 -76 -137 -64 -50 11 -115 65 -153 128 -12 19 -34 47 -50 62 -19 18 -28 37 -28 58 0 17 -16 61 -35 99 -27 54 -54 87 -125 152 -161 148 -165 179 -24 179 46 0 84 4 84 9 0 15 -68 61 -87 60 -10 -1 -30 -4 -44 -6z m646 -304 l144 -32 -10 -25 c-18 -47 -123 -232 -130 -230 -20 8 -167 178 -179 208 -7 19 -22 47 -32 62 -10 14 -18 31 -18 37 0 19 75 12 225 -20z"/>
 <path d="M2945 4686 c-36 -16 -87 -72 -115 -125 -17 -35 -60 -166 -110 -336 -48 -162 -124 -281 -226 -351 -75 -52 -122 -53 -217 -4 -73 37 -200 153 -246 225 -14 22 -49 72 -77 110 -28 39 -59 86 -69 105 -68 133 -303 347 -400 366 -48 9 -72 -2 -132 -59 -40 -38 -73 -87 -136 -201 -45 -83 -101 -193 -124 -244 -52 -114 -89 -169 -162 -245 -67 -70 -97 -87 -150 -87 -44 0 -137 32 -194 67 -38 24 -260 215 -286 246 -7 9 -17 17 -22 17 -28 0 5 -41 120 -152 147 -142 233 -194 334 -205 89 -9 130 12 231 117 l84 89 21 -34 c11 -19 74 -107 140 -195 67 -88 121 -164 121 -168 0 -5 -12 -19 -26 -33 -44 -41 -57 -76 -50 -135 l6 -52 -136 -1 c-75 -1 -139 -3 -143 -6 -4 -2 -43 -7 -87 -10 -122 -9 -182 -24 -267 -67 -84 -42 -154 -99 -188 -155 -19 -31 -21 -45 -17 -141 4 -88 10 -120 35 -184 17 -43 26 -78 21 -78 -6 0 -32 12 -59 27 -27 14 -52 24 -55 21 -3 -3 21 -25 53 -49 78 -59 179 -163 228 -234 42 -61 230 -255 329 -340 70 -59 86 -92 87 -182 1 -117 29 -322 60 -432 39 -140 141 -301 237 -371 20 -15 51 -42 67 -60 37 -39 81 -62 163 -85 34 -10 65 -22 68 -26 3 -5 -3 -23 -12 -41 -11 -21 -18 -60 -19 -103 -1 -66 -4 -75 -58 -162 -31 -51 -57 -102 -57 -113 0 -39 -29 -19 -83 57 -68 98 -119 149 -232 239 -144 113 -264 190 -459 295 -118 63 -223 147 -319 255 -20 23 -54 53 -76 68 -36 25 -43 27 -75 16 -59 -19 -61 -28 -21 -121 108 -251 192 -422 235 -481 47 -61 227 -218 251 -218 7 0 36 -18 65 -40 59 -44 93 -61 174 -84 56 -16 227 -50 336 -66 34 -5 74 -14 89 -20 l28 -11 -22 -23 c-18 -20 -21 -30 -15 -61 8 -44 58 -105 85 -105 16 0 19 7 19 43 0 59 10 89 27 85 18 -4 45 -76 37 -100 -4 -13 2 -21 21 -28 47 -18 167 -39 263 -46 60 -4 98 -12 108 -21 15 -16 46 -19 234 -28 93 -4 140 -1 182 10 93 24 241 132 277 202 8 15 21 23 39 23 71 1 155 71 169 142 3 18 21 55 40 82 53 78 42 136 -28 136 -43 0 -49 7 -69 87 -6 23 -31 68 -56 100 -24 32 -52 68 -61 81 -16 23 -45 151 -36 165 2 4 18 7 34 7 34 0 136 49 162 78 18 19 19 19 91 -29 41 -26 76 -55 79 -63 8 -21 123 -54 209 -61 373 -27 388 -28 498 -5 82 17 135 22 242 21 136 -2 137 -2 153 23 33 51 -9 88 -116 102 -27 4 -49 10 -49 14 0 4 15 19 34 34 27 20 35 33 35 58 0 18 3 49 6 69 6 32 3 40 -29 74 -34 36 -38 37 -83 31 -103 -13 -98 -14 -95 16 3 22 -1 28 -22 34 -39 9 -75 -3 -134 -47 -86 -65 -124 -79 -228 -79 -103 0 -144 -13 -199 -61 -39 -35 -53 -31 -80 21 -7 14 -52 68 -99 120 -47 52 -85 100 -86 106 0 20 34 79 57 97 31 25 29 42 -11 119 -19 36 -33 73 -31 84 17 82 13 77 41 59 33 -21 66 -13 89 22 15 22 16 30 5 47 -79 125 -53 108 33 -23 37 -55 71 -102 76 -106 6 -3 8 -18 5 -33 -6 -28 25 -85 57 -105 25 -15 49 -1 49 28 0 24 3 26 29 20 41 -9 65 17 57 64 l-5 36 49 -52 c39 -40 50 -59 50 -84 0 -37 44 -119 64 -119 8 0 24 11 37 25 13 13 34 25 47 25 14 0 27 9 34 25 10 21 8 35 -9 76 -33 78 -8 47 44 -54 51 -100 140 -201 171 -195 34 6 26 48 -25 122 -27 39 -53 78 -58 85 -18 31 57 -33 98 -82 75 -93 155 -167 178 -167 12 0 38 12 57 27 l35 26 24 -27 c14 -16 23 -40 23 -59 0 -22 10 -43 29 -65 36 -38 57 -41 73 -7 8 19 19 25 43 25 31 0 55 15 55 35 0 6 -25 51 -56 99 -30 48 -53 90 -51 92 4 4 184 -183 279 -290 24 -27 40 -37 51 -33 14 5 17 23 17 115 0 125 -11 161 -66 222 -42 47 -77 52 -129 20 l-33 -21 -44 52 c-46 56 -123 119 -144 119 -7 0 -26 -12 -43 -26 -23 -19 -31 -34 -31 -58 0 -37 35 -108 81 -166 17 -21 29 -44 27 -50 -6 -18 -121 117 -153 179 -30 60 -105 145 -147 167 -41 21 -64 17 -92 -18 l-25 -32 -46 52 c-62 69 -79 78 -112 57 l-25 -17 -86 91 c-48 50 -92 91 -99 91 -18 0 -53 -50 -53 -77 0 -13 11 -46 25 -73 14 -28 24 -50 21 -50 -2 0 -30 33 -61 73 -81 101 -166 187 -186 187 -10 0 -27 -12 -38 -27 -23 -28 -22 -42 9 -107 27 -56 5 -30 -89 104 -44 63 -90 127 -101 142 -28 36 -62 36 -89 1 l-20 -28 -53 52 c-30 29 -61 53 -70 53 -19 0 -67 -54 -69 -78 -4 -51 39 -120 138 -223 48 -49 75 -86 79 -107 4 -18 3 -32 -2 -32 -5 0 -28 26 -52 58 -24 31 -102 121 -173 200 -113 125 -128 146 -117 160 63 82 126 144 212 206 172 125 221 142 349 121 83 -14 208 -59 320 -115 33 -16 66 -30 73 -30 7 0 22 -16 34 -36 31 -49 84 -80 157 -92 87 -15 137 -40 213 -104 60 -51 72 -57 149 -72 101 -21 128 -34 170 -81 53 -61 35 -72 -48 -30 -86 43 -164 65 -267 73 -74 7 -115 16 -158 35 -67 31 -78 33 -70 12 3 -8 35 -29 70 -46 55 -27 81 -33 172 -40 83 -6 129 -15 205 -43 145 -51 145 -54 -14 -62 -109 -6 -118 -5 -208 25 -51 17 -107 42 -125 55 -65 50 -278 165 -358 195 -46 17 -119 39 -163 50 -45 11 -116 32 -158 46 -43 15 -82 25 -88 23 -12 -4 -50 -110 -42 -118 3 -3 22 14 42 38 l37 43 45 -20 c25 -11 98 -36 163 -56 140 -42 276 -96 325 -128 196 -129 246 -154 348 -178 61 -14 191 -13 229 2 23 9 109 18 182 19 6 0 12 5 12 10 0 6 -14 10 -30 10 -33 0 -35 3 -45 64 l-6 38 53 -7 c73 -10 99 -21 125 -52 30 -37 39 -23 17 24 -16 32 -28 41 -84 61 -46 16 -76 21 -104 17 -39 -6 -86 14 -86 35 0 16 187 12 219 -5 37 -19 81 -71 81 -96 0 -21 15 -26 25 -8 13 20 -7 129 -29 161 -12 18 -43 45 -70 59 l-48 26 59 47 c127 104 198 213 228 354 31 148 17 259 -51 418 -54 126 -62 127 -105 19 -28 -71 -146 -197 -219 -236 -37 -19 -41 -24 -23 -27 50 -8 158 74 233 177 24 33 49 61 55 61 16 0 39 -45 65 -125 30 -91 34 -235 7 -262 -28 -28 -144 -31 -215 -4 -70 27 -144 80 -174 125 -13 18 -38 55 -56 80 -45 63 -52 109 -22 141 l23 25 -31 0 c-31 0 -32 2 -32 39 0 22 -3 46 -6 55 -4 10 5 19 29 30 38 16 73 58 62 76 -4 7 -20 -2 -41 -24 -40 -41 -54 -45 -54 -15 0 27 38 89 53 89 11 -1 84 -29 210 -83 31 -13 66 -32 78 -43 20 -18 21 -18 35 1 8 10 14 23 14 28 0 23 -91 92 -175 133 -77 38 -104 46 -188 55 -104 11 -143 5 -179 -28 -27 -24 -22 -33 18 -33 34 0 36 -2 30 -25 -8 -32 15 -34 36 -3 27 41 52 -7 27 -54 -8 -15 -17 -18 -36 -13 -27 6 -53 -9 -53 -31 0 -10 13 -14 44 -14 l44 0 7 -67 c20 -204 126 -374 283 -456 85 -44 153 -59 211 -46 24 5 46 8 48 5 20 -19 -52 -149 -121 -219 -110 -111 -261 -177 -408 -177 -106 0 -137 9 -144 39 -15 67 -45 132 -89 195 -62 87 -141 168 -183 187 -27 11 -32 18 -27 37 5 22 -8 31 -20 12 -14 -22 -35 -10 -35 20 0 31 -17 39 -37 19 -8 -8 -13 -7 -18 1 -5 8 -14 5 -30 -10 l-24 -22 5 63 c4 53 9 67 29 82 14 10 25 27 25 36 0 10 8 25 18 34 15 14 19 14 41 -4 23 -19 23 -28 -3 -64 -10 -13 -12 -25 -6 -35 7 -12 16 -7 44 25 46 53 45 77 -5 126 l-41 40 -24 -22 c-14 -13 -24 -34 -24 -50 0 -14 -7 -32 -15 -39 -26 -22 -18 26 16 102 32 67 43 80 52 56 3 -10 7 -10 20 1 19 15 23 41 7 41 -18 0 -10 23 17 52 15 15 30 28 35 28 13 0 9 -34 -7 -57 -9 -13 -11 -24 -6 -28 14 -8 37 33 45 77 11 62 26 55 26 -12 0 -72 -28 -125 -60 -115 -22 7 -43 -24 -30 -45 6 -10 15 -8 40 13 29 24 60 36 60 22 0 -4 -6 -18 -14 -33 -25 -49 -29 -72 -13 -72 8 0 17 7 21 15 10 27 21 16 39 -43 20 -64 82 -174 137 -244 74 -94 242 -241 326 -284 81 -43 144 -63 144 -46 0 5 -19 17 -42 28 -24 10 -81 42 -128 70 -191 118 -422 409 -422 531 0 21 -4 43 -10 50 -5 7 -12 40 -15 73 -5 52 -3 65 16 90 28 38 28 60 -1 52 -18 -4 -20 -2 -14 14 16 39 17 49 3 68 -14 19 -15 19 -69 -3 -109 -46 -197 -136 -226 -231 -27 -90 -42 -174 -42 -230 0 -35 -5 -79 -11 -100 -9 -30 -8 -50 9 -111 11 -40 20 -75 18 -76 -1 -1 -26 6 -56 16 -146 50 -269 74 -371 75 -67 0 -160 -41 -230 -102 -24 -21 -62 -51 -84 -65 -61 -41 -154 -137 -177 -182 -11 -22 -22 -41 -23 -43 -2 -2 -45 39 -97 91 -51 52 -108 102 -125 111 -29 15 -36 15 -61 2 -78 -40 -62 -118 63 -311 37 -57 38 -59 9 -35 -16 14 -109 108 -208 210 -98 102 -192 197 -208 211 l-30 27 74 12 c90 14 186 59 228 106 29 33 31 41 29 101 l-2 64 109 47 c153 66 264 129 396 223 346 247 359 367 76 653 l-99 98 21 55 c11 29 20 64 20 77 0 13 7 37 15 52 8 16 15 38 15 49 1 16 9 11 43 -26 71 -78 115 -77 171 5 20 29 36 56 36 60 0 4 -12 37 -26 74 l-27 66 36 30 c20 17 50 42 67 55 23 17 30 30 28 49 -6 49 -106 84 -163 58z m126 -53 c10 -11 9 -17 -3 -30 -9 -8 -21 -12 -28 -8 -13 8 -30 47 -24 57 6 10 42 -2 55 -19z m-88 -25 c42 -56 -20 -109 -82 -72 -17 10 -31 22 -31 26 0 16 64 79 78 76 8 -2 24 -15 35 -30z m-1441 -2 c45 -18 74 -41 130 -101 85 -91 124 -141 163 -209 l27 -49 -28 7 c-16 4 -65 11 -109 17 -180 22 -315 72 -409 153 l-40 33 32 51 c79 123 126 142 234 98z m1357 -130 c62 -40 91 -81 91 -131 0 -50 -17 -65 -72 -65 -38 1 -53 11 -91 61 -28 38 -29 61 -2 125 17 40 24 41 74 10z m-1596 -130 c112 -79 174 -104 314 -126 70 -11 146 -27 168 -34 22 -8 56 -18 75 -21 19 -4 52 -16 72 -26 34 -18 37 -22 31 -52 -15 -78 -55 -119 -134 -136 -78 -17 -79 -16 -79 32 0 26 -9 56 -23 80 -28 47 -134 129 -161 125 -34 -5 -28 -26 12 -47 58 -30 100 -68 123 -113 23 -44 20 -71 -10 -110 -26 -32 -114 -44 -170 -23 -20 7 -47 16 -61 19 -36 7 -109 58 -185 127 -36 32 -84 71 -108 85 -23 15 -43 28 -45 29 -4 3 111 235 116 235 2 0 31 -20 65 -44z m-180 -229 c6 -16 280 -215 313 -227 12 -5 37 -31 55 -59 19 -27 52 -64 74 -81 33 -26 46 -31 74 -26 21 3 42 0 57 -11 21 -13 33 -14 87 -4 87 17 152 39 181 62 23 18 30 19 60 8 50 -18 110 2 156 52 l36 40 57 -65 c32 -36 78 -80 102 -97 55 -39 50 -47 -48 -84 -55 -21 -100 -29 -192 -35 -115 -8 -214 -32 -285 -70 -21 -11 -30 -5 -119 84 -53 53 -102 96 -109 96 -30 0 -6 -38 74 -118 47 -48 93 -99 102 -114 8 -14 26 -32 39 -39 13 -7 40 -33 61 -58 20 -25 85 -97 144 -159 119 -124 136 -151 145 -220 5 -45 3 -50 -30 -79 -57 -50 -124 -69 -332 -91 -160 -17 -211 -19 -322 -11 -73 5 -141 13 -152 17 -30 11 -180 160 -213 212 -39 62 -68 160 -68 232 l0 61 48 -7 c116 -16 141 -18 158 -8 16 9 29 1 84 -57 79 -83 116 -106 249 -159 108 -43 131 -49 131 -33 0 15 -47 44 -166 104 -94 47 -121 66 -172 122 -40 44 -69 86 -82 123 -24 62 -21 91 14 137 43 57 48 72 32 102 -8 16 -34 51 -58 80 -47 56 -105 134 -184 250 l-51 75 16 33 c17 37 26 43 34 22z m1021 -207 c5 -11 3 -28 -6 -46 -12 -26 -19 -29 -71 -32 l-57 -3 0 38 c0 21 -9 51 -20 68 -25 38 -25 46 1 89 l20 35 62 -65 c34 -36 66 -74 71 -84z m632 48 c68 -70 146 -174 175 -230 28 -54 24 -97 -12 -151 -59 -90 -250 -238 -409 -317 -36 -18 -77 -41 -91 -51 -30 -21 -207 -99 -225 -99 -7 0 -29 23 -50 51 -20 28 -60 68 -88 89 -47 35 -148 141 -169 176 -8 14 1 16 108 29 106 14 332 100 438 168 48 31 61 35 82 27 20 -8 27 -6 32 6 8 21 -3 29 -67 47 -57 17 -150 70 -150 85 0 5 23 12 51 16 29 4 69 16 89 26 38 19 117 100 167 170 33 46 36 45 119 -42z m-827 -41 c18 -22 24 -73 12 -96 -15 -27 -31 -18 -31 17 0 15 -7 36 -15 46 -8 11 -15 26 -15 33 0 17 34 17 49 0z m-81 -37 c31 -41 29 -83 -5 -110 l-28 -22 -6 51 c-4 28 -12 58 -19 66 -7 8 -10 22 -6 30 9 24 41 17 64 -15z m-98 -30 c19 -40 22 -56 14 -78 -8 -22 -15 -27 -44 -27 -35 0 -35 0 -44 58 -7 49 -6 61 9 77 27 30 39 25 65 -30z m-175 0 c45 -5 50 -8 53 -32 3 -28 -13 -68 -27 -68 -17 0 -113 98 -106 109 3 6 12 8 18 4 7 -4 35 -10 62 -13z m-559 -573 c-3 -33 -1 -74 8 -106 13 -49 12 -55 -4 -71 -18 -18 -120 -38 -138 -26 -15 9 -114 -24 -149 -50 -29 -22 -33 -30 -33 -74 0 -30 10 -76 26 -115 15 -36 24 -68 22 -70 -2 -3 -22 4 -43 15 -47 24 -55 19 -28 -18 l20 -27 -84 -2 c-60 -2 -85 1 -87 10 -2 6 -9 28 -16 47 -7 19 -21 60 -32 90 -26 73 -29 184 -5 227 33 62 130 132 223 162 90 29 225 56 298 60 l29 1 -7 -53z m178 -391 l60 -58 -92 3 c-100 4 -119 -8 -43 -27 89 -22 336 -46 448 -43 l113 3 31 -49 31 -49 -24 -18 c-12 -9 -27 -18 -31 -18 -11 0 -214 -92 -295 -133 l-64 -32 -161 82 c-89 45 -198 98 -243 118 l-81 37 -23 104 c-12 57 -20 107 -17 110 3 3 43 9 89 13 84 8 150 33 178 66 13 16 16 15 39 -16 14 -19 52 -60 85 -93z m2432 -10 c3 -7 1 -23 -4 -36 -9 -24 11 -80 28 -80 14 0 21 18 10 25 -13 8 -13 62 0 70 24 15 167 -112 157 -138 -7 -20 -121 -57 -171 -57 -60 0 -74 12 -53 44 25 38 22 49 -13 41 -36 -8 -42 13 -9 33 16 11 19 16 10 25 -10 9 -16 8 -26 -7 -13 -17 -14 -17 -20 10 -4 16 -9 36 -11 44 -6 24 0 34 19 35 10 1 23 7 29 13 13 13 46 -1 54 -22z m-1800 -140 c-32 -29 -36 -39 -36 -82 0 -27 6 -67 14 -89 30 -88 29 -95 -2 -95 -35 0 -51 -17 -91 -93 -17 -32 -33 -62 -36 -68 -4 -5 -22 0 -43 11 -20 11 -71 34 -112 51 -93 39 -144 69 -133 79 8 8 187 80 199 80 17 0 151 74 167 92 22 27 22 66 -3 103 -24 37 -14 45 58 45 l53 0 -35 -34z m2073 -130 c30 -64 48 -126 35 -126 -4 0 -21 10 -38 23 -45 34 -139 76 -191 86 -45 8 -75 25 -75 42 0 5 26 9 58 10 37 0 74 8 107 23 60 28 65 25 104 -58z m-2978 -8 c7 -13 25 -35 41 -50 32 -30 34 -40 12 -62 -20 -20 -22 -20 -62 4 -23 14 -32 26 -28 36 3 9 6 33 6 55 0 44 13 51 31 17z m-139 -100 c65 -38 146 -83 180 -99 35 -16 70 -33 78 -38 25 -16 280 -137 380 -182 52 -23 98 -45 102 -48 4 -4 -4 -29 -17 -56 -13 -28 -25 -56 -25 -62 0 -20 -16 -16 -63 18 -34 24 -52 30 -83 27 l-39 -3 49 -35 c28 -19 63 -47 79 -61 l30 -26 -17 -84 c-20 -98 -39 -469 -25 -484 20 -20 31 17 41 127 5 62 16 149 23 193 15 81 109 382 125 399 5 5 23 2 42 -7 18 -8 80 -34 138 -57 210 -83 215 -85 213 -122 -1 -18 -6 -49 -12 -68 -5 -19 -19 -87 -30 -150 -17 -99 -19 -126 -9 -190 25 -173 7 -284 -61 -361 -66 -75 -185 -100 -289 -61 -113 43 -257 164 -322 271 -50 83 -105 242 -124 359 -26 156 -36 232 -36 263 0 41 -42 158 -75 208 -15 21 -48 53 -76 69 -65 41 -64 58 4 67 28 4 58 12 65 17 28 23 9 29 -71 22 -68 -5 -90 -3 -120 11 -34 16 -237 219 -237 237 0 11 38 -8 182 -94z m266 29 c4 -28 20 -35 40 -15 14 14 18 4 27 -70 6 -51 5 -53 -15 -42 -12 6 -20 21 -20 35 0 28 -12 32 -30 10 -21 -25 -30 -7 -30 56 0 44 3 60 13 57 6 -3 13 -17 15 -31z m1586 -612 c26 -17 46 -13 46 8 0 7 -21 46 -47 87 -49 80 -204 360 -198 360 2 0 32 -30 67 -67 269 -287 336 -361 391 -439 38 -53 38 -55 25 -93 l-13 -39 -69 64 c-67 61 -144 110 -155 98 -4 -4 23 -32 59 -63 115 -99 303 -295 360 -373 30 -42 59 -77 63 -77 4 -1 23 14 41 32 26 26 49 37 110 50 42 9 96 17 120 17 57 0 108 19 185 68 113 74 135 69 69 -15 -27 -34 -57 -62 -74 -67 -61 -18 -103 -39 -109 -54 -3 -8 -4 -17 -2 -19 8 -8 172 68 196 91 32 29 66 47 75 39 3 -3 6 -21 6 -38 0 -18 7 -38 15 -45 8 -7 15 -16 15 -20 0 -10 -85 -47 -162 -70 -46 -14 -68 -26 -68 -36 0 -12 7 -14 33 -9 79 17 174 49 194 67 12 11 26 17 32 14 6 -4 27 -2 48 3 92 26 34 -30 -94 -90 -57 -26 -103 -53 -103 -59 0 -14 -2 -14 92 26 75 32 89 35 143 29 56 -6 125 -36 125 -54 0 -5 -62 -9 -137 -9 -86 -1 -163 -7 -203 -16 -73 -18 -349 -15 -540 6 -112 11 -144 24 -195 78 -39 41 -261 190 -396 265 -233 130 -549 328 -549 345 0 14 2 13 73 -15 66 -27 74 -30 237 -69 152 -37 220 -36 234 1 8 20 -46 90 -199 257 -193 210 -349 398 -379 456 -4 8 132 -125 302 -297 171 -171 322 -319 336 -328z m-1451 497 c5 -39 3 -52 -6 -49 -14 4 -25 40 -26 92 -1 34 1 37 13 25 7 -8 16 -39 19 -68z m77 23 c34 -18 37 -27 14 -46 -11 -9 -14 -22 -9 -46 6 -34 -4 -43 -23 -20 -12 14 -28 127 -18 127 4 0 20 -7 36 -15z m3158 -19 c38 -19 74 -41 81 -50 9 -11 2 -10 -29 5 -66 32 -163 39 -235 17 -65 -20 -186 -19 -226 2 -33 18 -14 23 40 10 60 -14 131 -6 221 25 36 12 68 23 73 24 4 0 38 -14 75 -33z m-2504 -26 c21 -28 113 -121 205 -207 91 -86 168 -159 171 -162 3 -3 -6 2 -20 10 -14 9 -52 25 -85 37 -33 11 -103 42 -155 67 -52 26 -116 56 -142 66 -42 16 -168 77 -176 84 -5 4 149 155 157 155 4 0 24 -23 45 -50z m-564 -5 c6 -8 22 -13 33 -12 20 2 22 -3 25 -60 3 -67 -9 -81 -40 -45 -21 23 -58 98 -58 117 0 19 24 20 40 0z m159 -68 c13 -15 22 -38 23 -61 2 -48 -13 -63 -49 -50 -26 9 -28 14 -31 72 -3 55 -1 62 16 62 10 0 28 -11 41 -23z m1401 -62 c65 -76 78 -105 25 -55 -40 38 -101 120 -88 119 4 0 33 -29 63 -64z m-1305 23 c27 -12 34 -28 11 -28 -17 0 -14 -64 5 -86 18 -22 3 -29 -25 -11 -18 12 -26 29 -31 66 -6 44 -2 71 10 71 2 0 16 -5 30 -12z m111 -52 c15 -12 17 -17 7 -27 -7 -7 -13 -30 -13 -51 0 -21 -4 -38 -9 -38 -13 0 -31 57 -31 96 0 37 14 43 46 20z m114 -86 c4 0 13 -14 20 -30 21 -51 -15 -77 -64 -45 -21 14 -24 24 -24 76 l0 61 30 -31 c17 -17 34 -31 38 -31z m80 -25 c10 -27 20 -31 37 -14 17 17 30 3 37 -40 3 -22 9 -46 12 -55 11 -29 -15 -17 -31 14 -17 32 -35 40 -35 15 0 -8 -6 -15 -14 -15 -13 0 -36 67 -36 104 0 25 19 19 30 -9z m127 -47 c9 -12 33 -87 33 -102 0 -3 -5 -6 -11 -6 -10 0 -33 46 -44 93 -7 28 5 37 22 15z m78 -39 c4 -5 19 -9 33 -7 24 3 28 -1 36 -40 7 -35 6 -46 -7 -59 -15 -15 -18 -15 -38 3 -22 20 -42 53 -53 92 -5 16 -3 22 8 22 8 0 18 -5 21 -11z m1890 -177 c28 -40 32 -62 12 -62 -12 0 -77 96 -77 113 0 17 41 -16 65 -51z m-1844 -79 c80 -58 228 -151 449 -283 118 -70 165 -103 165 -116 0 -25 -99 -84 -141 -84 -26 0 -37 7 -53 34 -40 64 -124 84 -258 63 l-52 -9 -75 69 c-40 37 -74 74 -75 80 -1 7 10 20 23 28 23 15 27 15 68 -6 24 -12 54 -30 68 -39 30 -21 108 -46 116 -37 11 11 -13 32 -50 45 -19 7 -61 29 -93 48 -75 45 -96 44 -144 -8 -22 -24 -39 -49 -39 -55 0 -7 14 -20 32 -29 33 -17 128 -102 128 -114 0 -4 -14 -13 -31 -21 -70 -28 -184 -128 -166 -145 2 -2 33 15 69 40 100 66 287 123 361 109 45 -8 105 -68 113 -112 13 -81 49 -188 73 -220 55 -71 78 -108 94 -148 19 -47 13 -56 -43 -68 -19 -4 -57 -17 -84 -28 l-49 -21 -18 23 c-17 20 -22 22 -53 11 -18 -6 -42 -20 -51 -30 -23 -26 -32 -25 -39 3 -3 13 -26 38 -51 56 -25 18 -45 36 -45 40 0 12 30 35 92 69 44 24 70 32 109 32 50 0 53 -2 124 -71 44 -42 76 -66 80 -60 6 11 -34 69 -74 105 -14 13 -21 31 -21 55 0 49 -40 131 -81 165 -28 24 -40 28 -80 24 -25 -3 -60 -14 -76 -26 -38 -27 -88 -120 -106 -200 -8 -35 -18 -66 -22 -70 -3 -4 -22 10 -40 30 -29 31 -33 42 -28 72 7 44 -13 56 -52 30 l-26 -17 21 -22 c11 -12 20 -26 20 -31 0 -21 62 -83 104 -102 52 -25 126 -92 126 -115 0 -33 -49 -75 -103 -88 -44 -11 -48 -14 -27 -19 32 -8 38 -55 15 -117 -22 -56 -53 -78 -102 -70 -25 4 -33 3 -26 -4 6 -6 28 -13 50 -16 34 -4 45 -1 75 26 51 44 72 93 63 147 -4 28 -2 44 4 44 6 0 26 14 46 31 l35 31 43 -46 c37 -39 49 -46 81 -46 20 0 46 5 57 10 23 13 26 45 3 36 -49 -19 -66 -18 -90 5 -25 24 -31 58 -14 90 13 24 25 24 50 -1 19 -19 20 -19 89 5 91 32 170 41 195 23 18 -14 17 -16 -7 -64 -31 -62 -69 -99 -129 -130 -39 -20 -63 -24 -135 -24 l-88 -1 -27 -36 c-33 -42 -37 -99 -12 -158 21 -50 8 -62 -82 -81 -87 -19 -410 -10 -418 11 -2 7 -18 16 -35 20 -41 9 -47 21 -15 29 21 6 24 9 14 21 -7 8 -30 20 -51 27 -39 11 -53 28 -23 28 25 0 12 33 -21 50 -17 8 -32 16 -34 17 -2 2 4 12 14 23 10 11 15 26 11 36 -5 13 -15 15 -51 10 -49 -8 -58 3 -30 34 14 15 13 19 -5 40 -11 13 -20 33 -20 45 0 29 -24 48 -50 40 -24 -8 -26 8 -8 67 10 36 14 39 37 33 64 -16 80 -16 116 -1 26 11 35 20 29 26 -7 7 -23 5 -49 -6 -36 -15 -42 -15 -72 0 -18 9 -38 27 -43 41 -12 33 12 114 44 144 25 23 52 20 42 -4 -3 -8 6 -34 19 -59 l24 -46 -42 0 c-55 0 -78 -14 -49 -29 32 -17 62 -13 99 12 44 30 48 45 18 69 -37 29 -31 68 15 90 49 24 50 23 50 -24 0 -48 14 -78 28 -63 6 6 12 37 14 71 3 51 11 71 46 123 45 67 72 143 72 200 0 19 -10 82 -22 139 -20 100 -20 106 -5 181 10 42 17 92 17 111 0 19 3 52 6 72 l6 37 37 -29 c20 -17 66 -51 102 -77z m2409 -133 c5 -10 10 -29 10 -42 -1 -22 -3 -21 -30 12 -36 41 -41 77 -10 60 11 -6 24 -19 30 -30z m-4210 -195 c0 -16 -54 -135 -61 -135 -21 0 3 91 32 127 11 13 29 18 29 8z m319 -368 c82 -63 122 -90 127 -85 2 3 -3 22 -11 43 -9 20 -14 39 -12 42 7 6 178 -90 277 -156 91 -60 270 -225 315 -291 16 -22 50 -57 77 -76 26 -20 48 -40 48 -45 0 -17 -41 -9 -85 17 -48 28 -193 67 -308 83 -175 25 -267 71 -380 191 -77 83 -139 170 -119 170 4 0 37 -25 72 -55 72 -62 95 -71 79 -27 -17 44 -60 113 -106 170 -64 78 -57 84 26 19z m1861 13 c12 -16 24 -46 27 -65 l6 -35 -59 0 c-47 0 -71 -7 -126 -35 -51 -27 -68 -32 -68 -21 0 32 42 126 70 156 24 26 35 30 78 30 45 0 53 -3 72 -30z m220 -541 c-13 -23 -96 -79 -118 -79 -28 0 -3 26 59 61 35 21 65 37 67 38 1 1 -2 -8 -8 -20z m-180 -76 c0 -32 -54 -123 -72 -123 -14 0 -48 30 -48 43 0 14 93 106 108 106 7 1 12 -11 12 -26z"/>
 <path d="M1230 2711 c-19 -10 -54 -25 -77 -31 -57 -17 -54 -30 6 -30 52 0 113 32 119 63 4 21 -4 21 -48 -2z"/>
 <path d="M945 2540 c-7 -12 2 -30 16 -30 5 0 9 9 9 20 0 21 -15 27 -25 10z"/>
 <path d="M1376 2321 c-4 -5 3 -15 15 -21 18 -10 20 -9 17 6 -4 20 -23 30 -32 15z"/>
 <path d="M1492 2268 c2 -12 11 -24 21 -26 14 -3 18 1 15 20 -2 12 -11 24 -21 26 -14 3 -18 -1 -15 -20z"/>
 <path d="M1820 2094 c0 -9 5 -14 12 -12 18 6 21 28 4 28 -9 0 -16 -7 -16 -16z"/>
 <path d="M2162 1959 c2 -6 8 -10 13 -10 5 0 11 4 13 10 2 6 -4 11 -13 11 -9 0 -15 -5 -13 -11z"/>
 <path d="M2091 1007 c-21 -27 -26 -100 -7 -116 13 -11 16 -11 19 0 2 8 9 28 14 46 6 17 7 35 3 40 -5 4 -10 17 -12 27 -3 18 -4 18 -17 3z"/>
 <path d="M1972 693 c2 -11 23 -22 61 -32 32 -9 59 -19 60 -21 0 -3 -5 -26 -12 -51 -12 -42 -11 -50 9 -90 21 -40 23 -42 31 -22 4 12 22 29 38 38 18 9 38 32 50 58 19 42 19 42 -1 60 -12 10 -36 17 -59 17 -24 0 -63 12 -99 30 -68 34 -83 37 -78 13z m171 -117 c6 -16 -16 -40 -26 -29 -4 3 -7 15 -7 25 0 21 25 24 33 4z"/>
 <path d="M2024 392 c19 -36 44 -58 89 -77 64 -27 147 -15 147 21 0 12 -11 15 -52 14 -94 -3 -104 -1 -145 35 -50 42 -58 44 -39 7z"/>
 <path d="M2012 4647 c-25 -26 -26 -47 -7 -97 l13 -35 -1 44 c-2 31 3 46 15 54 17 11 23 10 92 -18 16 -7 17 -6 7 14 -12 22 -67 61 -87 61 -6 0 -20 -10 -32 -23z"/>
 <path d="M3180 4582 c0 -5 14 -21 31 -38 114 -109 361 -471 489 -719 78 -149 110 -205 121 -205 19 0 6 34 -80 207 -132 266 -284 500 -424 656 -75 82 -137 127 -137 99z"/>
 <path d="M3406 4118 c4 -7 45 -62 90 -121 45 -59 109 -162 143 -228 79 -152 103 -151 37 3 -41 97 -226 350 -260 356 -13 3 -16 0 -10 -10z"/>
 <path d="M3810 4093 c0 -10 8 -30 18 -44 9 -15 38 -58 63 -95 25 -38 54 -84 63 -101 17 -34 36 -44 36 -19 0 29 -153 276 -171 276 -5 0 -9 -8 -9 -17z"/>
 <path d="M3977 3492 c-18 -19 -23 -42 -9 -42 16 0 52 32 52 46 0 20 -24 18 -43 -4z"/>
 <path d="M3906 3478 c-15 -47 -15 -79 0 -85 23 -8 30 5 15 29 -12 19 -11 23 4 34 9 7 14 17 10 23 -9 15 -25 14 -29 -1z"/>
 <path d="M4257 3373 c-10 -9 -8 -41 2 -47 18 -11 41 6 41 30 0 17 -6 24 -18 24 -10 0 -22 -3 -25 -7z"/>
 <path d="M3990 3346 c0 -33 16 -42 30 -16 12 23 6 40 -16 40 -8 0 -14 -10 -14 -24z"/>
 <path d="M4053 3325 c-3 -9 2 -24 11 -34 9 -10 16 -24 16 -31 0 -32 13 3 14 40 2 33 -1 40 -16 40 -10 0 -21 -7 -25 -15z"/>
 <path d="M3857 3293 c-4 -3 -7 -15 -7 -25 0 -14 7 -18 30 -16 31 2 34 6 24 32 -6 16 -35 22 -47 9z"/>
 <path d="M3973 3244 c-9 -23 11 -38 26 -20 13 16 7 36 -10 36 -5 0 -12 -7 -16 -16z"/>
 <path d="M3860 3175 c0 -8 7 -15 15 -15 8 0 15 7 15 15 0 8 -7 15 -15 15 -8 0 -15 -7 -15 -15z"/>
 <path d="M3928 3155 c-6 -14 -8 -28 -5 -32 9 -8 47 27 47 44 0 23 -30 14 -42 -12z"/>
 <path d="M3740 3079 c0 -24 23 -21 28 4 2 10 -3 17 -12 17 -10 0 -16 -9 -16 -21z"/>
 <path d="M3575 3040 c-9 -10 -15 -26 -11 -35 5 -13 9 -12 31 7 27 23 33 48 12 48 -8 0 -22 -9 -32 -20z"/>
 <path d="M3670 3000 c0 -11 4 -20 9 -20 13 0 32 26 24 33 -13 14 -33 6 -33 -13z"/>
 <path d="M4230 2075 c-22 -24 -22 -25 -4 -25 23 0 44 18 44 37 0 20 -14 16 -40 -12z"/>
 <path d="M1906 201 c-4 -6 17 -25 46 -44 29 -18 79 -55 112 -81 76 -63 97 -48 29 20 -68 70 -173 128 -187 105z"/>
 </g>

</svg>